<svg version="1.1" viewBox="0 0 1024 1024" width="1024" height="1024" xmlns="http://www.w3.org/2000/svg">
<path transform="translate(0)" d="m0 0h1024v1024h-1024z" fill="#F04C3B" data-index="0" style="opacity: 1;"></path>
<path transform="translate(814,233)" d="m0 0 5 2 10 8 9 8 6 5 6 7 2 1v2l4 2 2 4 4 2 57 57 6 5 7 8 5 4v2h2l3 3v2h2l24 24v2l4 2v2l4 2 6 5v2l4 2 7 8 6 5 6 7 2 1v2h2v2l8 4 4 28 3 37v48l-4 40-6 36-7 30-9 31-8 23-11 26-13 27-13 23-14 22-12 17-10 13-9 11-12 14-11 12-7 7-2 3h-2v2l-8 7-10 10-11 9-9 8-13 10-19 14-17 11-18 11-22 12-29 14-25 10-20 7-29 9-30 7-22 4-14 2h-14l-6-7-28-28v-2h-2l-7-8-16-16-7-8-12-12-7-8-7-7v-2h-2l-7-8-12-13-3-3v-2h-2l-7-8-9-9-7-8v-2h-2l-2-5h-2l-4-6-10-17-2-5h2l4 5v2h2v2l4 2 10 6 11 4 6 1h139l16-4 11-6 9-8 7-11 4-9 2-9 1-187 2-16 5-12 5-8h2v-3h2l2-5 10-14 8-11 7-10 12-17 4-6h2l1-4 14-19 12-17 13-18h2l2-5 10-14 26-36 11-15 10-14 36-51 9-15 5-14 1-6v-12l-3-14-8-16-8-10-9-8z" fill="#B5213A" data-index="1" style="opacity: 1;"></path>
<path transform="translate(715,221)" d="m0 0 72 1 9 2v2l5 1 14 7 12 11 9 14 5 12 2 11v12l-3 13-8 16-11 16-12 17-13 18-10 14-12 17-12 16-13 19-10 13-7 11h-2l-2 4-20 28-13 18-4 5-1 3h-2l-2 5-9 12-12 17-4 5-3 5-8 11-5 8h-2v3h-2l-2 5-6 12-2 7-1 12-1 187-3 12-3 6-8 12-10 9-13 6-13 3h-139l-13-3-13-7-5-4v-2h-2l-8-11-3-6-4-17-1-192-4-14-7-11-11-16-12-17-8-11v-3h-2l-10-15-10-14-13-18-12-17-10-14-2-3-1-22-2-9-5-8-4-5-10-6-6-2-14-2-12-17-52-78-5-12-2-9v-18l3-12 6-12 8-10 9-8 16-8 11-3h93l13 4 10 6 10 9 12 17 14 22 10 15 11 17 30 45v4l-5 8-2 8v11l3 9 6 9 10 7 9 3h19l7 9 18 28 5 4 3 1h8l8-4 11-16 10-15 7-10 8-12 7-11 4-5 1-3h2l2-5 7-10 3-5 9-14h2l2-5 10-15 5-9h2l2-4 10-16 6-8 3-5 4-7h2l2-5 1-3h2l2-5 6-9 7-10 4-7h2l1-3 6-5 10-6 14-4z" fill="#FCEB6D" data-index="2" style="opacity: 1;"></path>
<path transform="translate(1023,538)" d="m0 0h1v486h-488v-1l6-1 36-3 26-4 36-8 30-9 20-7 21-8 28-13 25-13 17-10 27-18 16-12 14-11 14-12 12-11 8-8h2v-2l18-18 9-11 9-10 13-17 13-18 14-22 12-21 10-19 13-29 6-15 10-31 8-30 6-29 4-25z" fill="#FDFDFD" data-index="3" style="opacity: 1; visibility: visible; fill: rgb(121, 40, 202); stroke: rgb(121, 40, 202);"></path>
<path transform="translate(0,532)" d="m0 0h1l3 39 3 23 7 35 8 30 11 33 11 27 14 29 13 24 8 13 12 18 13 18 8 10 9 11 12 14 16 17 9 9 8 7 11 10 11 9 14 11 11 8 19 13 28 17 20 11 28 13 28 11 30 10 31 8 29 6 28 4 35 3v1h-489z" fill="#FDFDFD" data-index="4" style="opacity: 1; visibility: visible; fill: rgb(121, 40, 202); stroke: rgb(121, 40, 202);"></path>
<path transform="translate(0)" d="m0 0h485v1l-41 4-26 4-36 8-28 8-33 12-25 11-23 11-18 10-18 11-18 12-19 14-10 8-13 11-12 11h-2v2l-8 7-17 17-7 8-13 15-11 14-10 13-12 18-14 22-13 24-12 24-11 27-8 23-8 26-7 29-5 28-3 24-3 37h-1z" fill="#FDFDFD" data-index="5" style="opacity: 1; visibility: visible; fill: rgb(121, 40, 202); stroke: rgb(121, 40, 202);"></path>
<path transform="translate(541)" d="m0 0h483v490h-1l-3-37-4-28-6-29-7-27-9-28-10-27-16-34-14-26-12-19-8-12-12-17-11-14-9-11-12-14-14-15-13-13-8-7-11-10-14-11-11-9-18-13-17-11-22-13-22-12-34-15-24-9-28-9-32-8-27-5-54-6z" fill="#FDFDFD" data-index="6" style="opacity: 1; visibility: visible; fill: rgb(121, 40, 202); stroke: rgb(121, 40, 202);"></path>
<path transform="translate(559,456)" d="m0 0h15l6 3v2l4 2 4 8v10l128-1-2 5-2 3h-2l-1 4-3 4h-2l-1 4h-2v6l-10 13-1 3h-2l-2 5-9 12-12 17-4 5-3 5-8 11-5 8h-2v3h-2l-2 5-6 12-2 7-1 12-1 187-3 12-3 6-8 12-10 9-13 6-13 3h-74l2-2-1-87v-51l-7-15v-15l3-10 4-8 1-189 3-1h32l2 1v-9l5-9 3-3h2v-2z" fill="#FBC028" data-index="7"></path>
<path transform="translate(329,224)" d="m0 0h8l14 5 14 8 11 9 17 16 21 21v2h2l7 8 16 16 7 8 9 9 7 8 11 11 7 8 5 5v2l4 2 7 8 3 3v2h2l14 16 16 16v2h2l7 8 4 4-1 4-9 14-12 17-8 4h-8l-7-4-4-5-7-11-14-21-3-1h-17l-11-4-9-7-6-9-3-9v-11l3-10 5-7-2-4-9-14-20-30-7-11-18-27-10-16-10-14-6-7-11-8-11-5z" fill="#B5213B" data-index="8"></path>
<path transform="translate(533,655)" d="m0 0h11l10 3 11 7 4 5v2h2l4 10 1 4v10l-4 11-9 10-11 7-4 1h-13l-11-3-1 2-5-3-1-2-5-2-1-4-2-1-3-9-2-7h-2l1 9v4h-2l-2-5v-15l3-10 4-8h2l2-4 9-7 9-4z" fill="#FB7609" data-index="9"></path>
<path transform="translate(741,288)" d="m0 0h11l12 5 8 7 3 4 5 9 1 15-2 9-3 6-6 8-9 6-7 3h-14l-11-4-9-7-2-5h-2l-4-11-1-5 1-16 6-10 5-6 10-6z" fill="#FB8608" data-index="10"></path>
<path transform="translate(299,254)" d="m0 0h13l9 3 10 8 5 8 2 6v17l-4 10-8 9-9 5-3 1h-16l-12-6-7-7-4-9-1-4v-13l3-10 6-8 8-7z" fill="#FCC028" data-index="11"></path>
<path transform="translate(413,484)" d="m0 0h14l9 3 10 9 5 8 2 8v9l-3 9-5 9-6 5-10 5h-16l-8-3-6-4-7-8-4-8-1-4v-11l3-9 4-6 7-7 5-3z" fill="#FCC028" data-index="12"></path>
<path transform="translate(436,772)" d="m0 0h15l8 3 8 7 4 5 2 7v14l-4 10-7 8-12 5h-11l-10-4-8-7-4-6-2-7v-13l6-12 7-6z" fill="#FB8307" data-index="13"></path>
<path transform="translate(644,407)" d="m0 0 10 1 9 5 1 3 4 2v2h2l3 10v11l-3 9-7 8-5 4-7 2h-11l-10-4-9-8-4-11v-11l4-10 5-5 5-4 6-3z" fill="#FB8709" data-index="14"></path>
<path transform="translate(485)" d="m0 0h12v3l-17 1-28 2-14 2-16 2-9 3-13 1v2l-11 2-9 3-10 2-5 2-12 3-1 2-7 1-10 3-9 4-4 3-7 1-7 4-9 3-8 5-1 1-7 1-8 5-9 4h-2l-1 3-7 3h-3v2l-9 7-4 1-3 3-12 6-4 3h-2v2l-8 5-2 4-6 2-5 4-2 2-3 1-4 5-4 3h-2l-1 4-6 4-2 3h-3v2l-5 4-1 3-6 4-5 4-2 4-4 2-3 5-4 1-1 3-5 5-8 11-7 6-4 6-5 5-1 3-4 4-3 5-3 3-3 6-6 7-1 5h-2v2l-3 3-5 6-3 9-5 5-5 9h-2l-3 11-5 9-4 8h-2l-3 11-3 7-1 6-4 4-4 12-3 5-3 9-2 10-1 2h-2l-1 8-3 14-2 10-3 6-2 10-1 10h-2l-1 7-3 31-2 21-1 3-2 18h-1v-17l4-40 5-29 7-30 8-27 7-21 9-22 8-18 13-26 11-19 11-17 13-19 12-16 12-14 9-11 16-17 15-15h2v-2l8-7 10-9 20-16 18-13 15-10 16-10 29-16 30-14 23-9 22-8 36-10 39-8 33-4z" fill="#D9523E" data-index="15"></path>
<path transform="translate(328,387)" d="m0 0h13l8 4 7 8 3 10-1 10-6 9-4 4-10 4-9-1-8-4-7-8-3-7v-10l3-8 6-7z" fill="#FB8307" data-index="16"></path>
<path transform="translate(528)" d="m0 0h13l54 6 31 6 35 9 35 12 26 11 20 9 22 12 17 10 27 18 21 16 13 11 11 9 8 8 8 7 17 17 7 8 12 14 13 16 13 18 12 18 14 23 13 24 15 32 11 29 10 33 8 33 2 11v5l-3-1-1-5-1-3-2-16-1-5-3-10-3-9-3-14v-4h-2v-6h-2l-4-14-3-7-4-11-5-12-9-19-7-13-4-8v-2h-2l-7-14-5-7-4-8-7-9-1-3h-2l-5-10-3-3-1-3-5-4v-3l-4-2-3-7-3-3-8-10-3-3v-2l-3-1-5-5-5-6v-2l-4-2v-2l-4-2v-2l-5-2-4-5-3-3-3-1-4-6-6-5v-2l-5-2-5-3-3-5-3-2v-2h-2v-2l-5-2-7-5-5-3v-2l-4-2-11-8v-2l-9-2-1-3-6-2v-2l-6-1-5-5-5-3-13-7-7-3-6-4-9-4-9-5-9-2v-2h-2v-2l-8-1-4-3-14-5-11-3-13-5-21-6h-7l-7-3-12-3-24-4-34-4-27-2-3-1z" fill="#D9513E" data-index="17" style="opacity: 1;"></path>
<path transform="translate(224,272)" d="m0 0 9 1 7 4 6 7 1 3v13l-5 9-6 5-3 1h-14l-7-4-6-9-1-3v-9l3-7 7-8z" fill="#FBBF27" data-index="18"></path>
<path transform="translate(741,288)" d="m0 0h11l12 5 8 7 3 4 4 12h-3l-1-2-9 1-2-1v-3l-14-3v-2l-13-1-4 10-6 5-5 1-2 17h-3l-4-8-2-2 1-16 6-10 5-6 10-6z" fill="#FB7B0B" data-index="19"></path>
<path transform="translate(559,456)" d="m0 0h15l6 3 5 10v11l-5 7-3 5-7 4h-13l-8-6v-2h-2l-2-4v-10l3-9 4-4h2v-2z" fill="#FB8508" data-index="20"></path>
<path transform="translate(413,484)" d="m0 0h14l9 3 10 9 5 8 1 4v7l-2-2-3-5-6-5-8-4h-15l-10 5-7 8-3 8v12l2 6v3l-4-2-4-5-4-8-1-4v-11l3-9 4-6 7-7 5-3z" fill="#FB7B0B" data-index="21"></path>
<path transform="translate(234,220)" d="m0 0h81l13 2 4 2-4 1-5-1h-93l-14 4-14 8-10 9-8 12-5 14-1 5v18l3 12 7 14 13 19 42 63 5 7 17 3 10 5 6 5 6 9 2 5-1 4-8-9-9-5-11-4-6-4-3-4-7-4-5-9v-3h-3l-2-6-2-1-6-7-7-13v-2h-2l-6-9v-2h-2l-3-6-5-6-2-5-7-9-7-11-6-11-4-16v-18l4-15 8-14 2-3 5-5h2l2-4 5-4 9-5z" fill="#D9523E" data-index="22"></path>
<path transform="translate(299,254)" d="m0 0h13l9 3 10 8 5 8 2 6v17l-3 6-1-3-1-9-5-10-7-7-7-3h-16l-8 4-7 6-4 9-2 11-2-1-1-4v-13l3-10 6-8 8-7z" fill="#FB7A0A" data-index="23"></path>
<path transform="translate(578,522)" d="m0 0h6l10 5 4 5 1 3v8l-5 8-5 4-5 2h-10l-7-4-5-8 1-10 4-7 8-5z" fill="#FB7608" data-index="24"></path>
<path transform="translate(113,832)" d="m0 0 4 2 2 5 5 1 2 4 1 3 5 4 5 7 5 5 3 2v2l3 1v2l4 2 5 5v2l4 2 15 15 5 3v2h3v2h2v2h3l4 5 9 5 13 11 6 4 3 1 4 4 8 4 4 4 8 4 9 6 5 3 18 10 16 7 9 4 5 2v2l10 2v2l6 1 9 3v2l7 1 4 2h8l5 4 6 2 9 2 12 3 11 3 9 2 12 1 6 3 49 6 16 1 2 1v2l-37-3-33-5-37-8-31-9-28-10-26-11-19-9-14-8-11-6-20-12-12-8-22-16-14-11-14-12-12-11-10-9-12-12-7-8-10-11-9-11z" fill="#D9523E" data-index="25"></path>
<path transform="translate(287,439)" d="m0 0 3 3 1 22 7 10 40 56 9 13v2h2l4 7 20 28 8 12 7 11 4 14 1 192 4 17 2 6-4-2-2-3-3-15-1-194-3-10-7-14v-2h-2l-2-3v-3h-2l-8-12v-2l-4-2-4-6-3-3-3-9-4-2-6-11v-2l-4-1-2-8-4-2-4-6-3-3-9-15-3-2-3-5v-2h-2v-2h-2l-12-20-4-5-1-2z" fill="#D9523E" data-index="26"></path>
<path transform="translate(424,619)" d="m0 0h12l6 4 3 5 1 4v7l-3 6-7 6-3 1h-7l-8-6-3-4-1-3v-9l4-6z" fill="#FB8508" data-index="27"></path>
<path transform="translate(0,528)" d="m0 0h2l1 4 1 20 2 8 1 18 3 22 1 4h2l1 13 4 17 1 2 1 10 6 19 5 10 2 12 8 18 2 7 5 8 2 8 3 5 1 3 2 1 3 8 5 9 1 6 3 1 2 2 1 2 1 4 4 6 3 5 2 4 3 2 1 5 3 1 3 8 2 5h2v2h2l7 10 3 5 4 4 2 6-5-4-13-18-11-16-7-11-9-15-13-24-14-29-14-37-10-33-7-30-5-27-4-39z" fill="#D9513E" data-index="28"></path>
<path transform="translate(426,394)" d="m0 0 3 4 6 9 10 7 9 3h19l3 3-2 5-8 4-3 1h-7l-13-4-6-4-7-9-4-9z" fill="#FBBB26" data-index="29"></path>
<path transform="translate(224,272)" d="m0 0 9 1 7 4 4 4-1 4-5-2h-12l-5 3-5 4-3 8v7l1 5-4-2-4-6-1-3v-9l3-7 7-8z" fill="#FB8207" data-index="30"></path>
<path transform="translate(596,531)" d="m0 0 2 1 1 3v8l-5 8-5 4-5 2h-10l-7-4-1-5 5 1 5-5 5-7 2-1h12z" fill="#FB8207" data-index="31"></path>
<path transform="translate(358,407)" d="m0 0 1 2-1 10-6 9-4 4-10 4h-5l-1-2 2-2 2-9 4-6 6-6 4-2z" fill="#FCC028" data-index="32"></path>
<path transform="translate(296,266)" d="m0 0h17l8 4 5 3 4 1-1-4 2-1 3 6 1 3 3 1v17l-3 6-1-3-1-9-5-10-7-7-7-3h-16l-8 4-7 6-4 9-2 11-2-1-1-4v-13l2 2 3-8 8-5h2l1-3z" fill="#FB8308" data-index="33"></path>
<path transform="translate(436,772)" d="m0 0h15l8 3 8 7 4 5 2 7v14l-3-3v-13l-2-1-2-5-6-5-3-1-2-3-8 2-8-2-9 1-5 5-1 3h-2l-2 6h-3l1 16 7 12 4 5h-3l-8-9-3-9v-13l6-12 7-6z" fill="#FB800D" data-index="34"></path>
<path transform="translate(580,782)" d="m0 0 6 2v2l3 1 1 3v7l-4 5h-2v2h-8l-6-5-2-8 4-6 3-2z" fill="#FB8307" data-index="35"></path>
<path transform="translate(439,493)" d="m0 0 7 3 5 8 1 4v7l-2-2-3-5-6-5-8-4h-15l-10 5-7 8-3 8v12l2 6v3l-4-2-3-3 1-3-1-7 2-9 3-5 2-7 8-6 5-3 13-1h10z" fill="#FB8307" data-index="36"></path>
<path transform="translate(252,410)" d="m0 0 13 2 10 5 6 5 6 9 2 5-1 4-8-9-9-5-11-4-6-4-5-7z" fill="#B6233B" data-index="37"></path>
<path transform="translate(575,686)" d="m0 0h1v10l-4 11-9 10-11 7-4 1h-13l-11-3-1 2-5-3-1-2-5-2-1-4-2-1-3-9-1-5 3 4 7 10 5 4 14 6h12l2-2 7-3 6-3 7-14 3-2h1l2-10z" fill="#FB8207" data-index="38"></path>
<path transform="translate(424,619)" d="m0 0h12l6 4 3 5v10h-1l-2-11-1 3h-7l-8 3-3 3h-7v3h-2v-9l4-6z" fill="#FB7C0B" data-index="39"></path>
<path transform="translate(572,709)" d="m0 0h2l-1 5-3 5-2 3h-2l-1 3-12 7-8 1h-15l-8-3-4-4-2-1 1-3 9 4 4 1h15l15-6 7-7h2l2-4z" fill="#FCEC6E" data-index="40"></path>
<path transform="translate(0,528)" d="m0 0h2l1 4 1 20 2 8 1 18 3 22 1 4h2l1 13 4 17 1 2v10l-2-1-7-30-5-27-4-39z" fill="#DA523E" data-index="41"></path>
<path transform="translate(366 1e3)" d="m0 0h6l14 4 11 3 9 2 12 1 6 3 49 6 16 1 2 1v2l-37-3-33-5-37-8-18-5z" fill="#DA533F" data-index="42"></path>
<path transform="translate(234,220)" d="m0 0h81l13 2 4 2-4 1-5-1h-93l-15 4v-2l11-4z" fill="#DA533F" data-index="43"></path>
<path transform="translate(391,729)" d="m0 0h1l1 80 4 17 2 6-4-2-2-3-3-15v-76z" fill="#DC553B" data-index="44"></path>
<path transform="translate(404,11)" d="m0 0m-5 1h5v2h-4v2l-11 2-9 3-10 2-5 2-12 3-1 2-7 1-10 3-1 1h-5l3-3 22-8 36-10z" fill="#DA533F" data-index="45"></path>
<path transform="translate(113,832)" d="m0 0 4 2 2 5 5 1 2 4 1 3 5 4 5 7 5 5 3 2v2l3 1v2l4 2 5 5v2l4 2 15 15h-3l-12-11-10-9-12-12-7-8-10-11-9-11z" fill="#D8513E" data-index="46"></path>
<path transform="translate(328,387)" d="m0 0h13l8 4 3 4-5-1-4-2-5 8-5-2-5-6-7 1 2-4z" fill="#FB7C0B" data-index="47"></path>
<path transform="translate(587,482)" d="m0 0 1 4-6 9-4 1v2l-8 3h-7l-5-2v-2l12-2 7-4 6-7z" fill="#FCEC6E" data-index="48"></path>
<path transform="translate(433,773)" d="m0 0 2 1-10 9-1 3h-2l-2 6h-3l1 16 7 12 4 5h-3l-8-9-3-9v-13l6-12 7-6z" fill="#FB9215" data-index="49"></path>
<path transform="translate(7,433)" d="m0 0h1l-1 21-2 21-1 3-2 18h-1v-17l4-40z" fill="#D9523E" data-index="50"></path>
<path transform="translate(367,574)" d="m0 0 5 5 7 10 9 14 4 14v16h-1l-1-14-3-8-5-12-3-5v-2h-2l-2-3v-3h-2l-7-11z" fill="#D74F3C" data-index="51"></path>
<path transform="translate(212,226)" d="m0 0h3l-1 3-12 7-10 9-8 12-5 14-2 1 1-9 9-16 2-3 5-5h2l2-4 5-4z" fill="#D74F3E" data-index="52"></path>
<path transform="translate(220,372)" d="m0 0h3l21 31 4 6 4 2-4 2-4-3-5-9v-3h-3l-2-6-2-1-6-7z" fill="#D9513D" data-index="53"></path>
<path transform="translate(792,83)" d="m0 0 9 5 19 14 10 8 2 3-5-2-7-5-5-3v-2l-4-2-11-8v-2l-9-2z" fill="#D9513E" data-index="54"></path>
<path transform="translate(224,272)" d="m0 0 9 1 7 4 4 4-1 4-2-1v-3l-5-2-5-4v2l-5 1-7-1h-2v2l-4 1h-3l5-5z" fill="#FB8710" data-index="55"></path>
<path transform="translate(163,137)" d="m0 0 2 1v3l-6 4-5 4-2 4-4 2-3 5-4 1-1 3-4 1 3-5 22-22z" fill="#D74F3E" data-index="56"></path>
<path transform="translate(336,228)" d="m0 0 6 2 13 11 5 7 1 4-5-2-3-5-5-4-5-5-7-5z" fill="#FDFBE6" data-index="57"></path>
<path transform="translate(672,25)" d="m0 0 24 8 19 8v3h-2v-2l-8-1-4-3-14-5-11-3-5-3z" fill="#DA533F" data-index="58"></path>
<path transform="translate(648,264)" d="m0 0 1 3-3 5h-2l-1 4-2 4h-2l-2 6-3 3-4 7-5 7-1-2 5-9 1-3h2l2-5 2-4 3-3 1-3h2l2-6z" fill="#E86B2A" data-index="59"></path>
<path transform="translate(485)" d="m0 0h12v3l-17 1h-19l1-2z" fill="#D9513E" data-index="60"></path>
<path transform="translate(398,515)" d="m0 0 1 3-1 2v12l2 6v3l-4-2-3-3 1-3-1-7 1-7z" fill="#FB860A" data-index="61"></path>
<path transform="translate(528)" d="m0 0h13l25 3-1 2h-9l-25-2-3-1z" fill="#D8513E" data-index="62"></path>
<path transform="translate(58,747)" d="m0 0 3 1 3 6 1 6 3 1 2 2 1 2 1 4 4 6-1 4-6-9-11-20z" fill="#D64E3E" data-index="63"></path>
<path transform="translate(561,394)" d="m0 0 1 4-14 20-4 5-2-4 4-3 4-7h2l2-6 3-1v-2h2l1-5z" fill="#E9722B" data-index="64"></path>
<path transform="translate(64,264)" d="m0 0 1 2-4 10-8 16h-3l2-6 10-20z" fill="#D64E3E" data-index="65" style="opacity: 1;"></path>
<path transform="translate(283,53)" d="m0 0m-2 1h2l-1 3-16 8h-2l-1 3-7 3-3-1 8-5z" fill="#DA533F" data-index="66"></path>
<path transform="translate(1009,396)" d="m0 0h2l5 24v5l-3-1-1-5-1-3-2-16-1-2z" fill="#D9523E" data-index="67"></path>
<path transform="translate(351,553)" d="m0 0h3l11 16 3 5h-3v-2l-4-2-4-6-3-3z" fill="#D9513D" data-index="68"></path>
<path transform="translate(561,1016)" d="m0 0 3 2v2h5v1l-27 2h-10v-1l12-2 16-2z" fill="#D9523E" data-index="69" style="opacity: 1;"></path>
<path transform="translate(186,116)" d="m0 0m-1 1m-1 1m-1 1m-2 1h2l-1 5-6 4-2 3h-3v2l-5 4-3-1 5-5z" fill="#DA533F" data-index="70"></path>
<path transform="translate(442,495)" d="m0 0 4 1 5 8 1 4v7l-2-2-4-8-3-3 1-3z" fill="#FB830E" data-index="71"></path>
<path transform="translate(31,685)" d="m0 0 4 5 6 15 2 7h-3l-9-23z" fill="#DA533F" data-index="72"></path>
<path transform="translate(113,832)" d="m0 0 4 2 2 5 5 1 2 4 1 3 5 4 1 3h-3l-13-15-4-5z" fill="#D9513E" data-index="73"></path>
<path transform="translate(287,439)" d="m0 0 3 3 1 22 4 7-4-2-3-5z" fill="#D8503E" data-index="74"></path>
<path transform="translate(416,642)" d="m0 0 4 2 4 3 11 2 4-3 2 1-5 4-3 1h-7l-8-6z" fill="#FB8C12" data-index="75"></path>
<path transform="translate(337,530)" d="m0 0 3 3 7 10v2h2l4 8-5-2-6-10-1-4-4-1z" fill="#DF5A36" data-index="76"></path>
<path transform="translate(727,346)" d="m0 0 12 3 3 4v2l-7-1-4-2-4-4z" fill="#FB7609" data-index="77"></path>
<path transform="translate(320,391)" d="m0 0 2 1-5 9-3 8-1 6h-1v-13l6-9z" fill="#FB820E" data-index="78"></path>
<path transform="translate(386,603)" d="m0 0h2l4 14v16h-1l-1-14-3-8-2-4z" fill="#E7672A" data-index="79"></path>
<path transform="translate(990,331)" d="m0 0 3 4 6 18v2h-2v-3h-2l-4-14-2-6z" fill="#D74F3E" data-index="80"></path>
<path transform="translate(214,278)" d="m0 0 3 3v2h-4l-4 2-1 9-2 2v-10l3-5z" fill="#FB7D0B" data-index="81"></path>
<path transform="translate(392,809)" d="m0 0h1l4 17 2 6-4-2-2-3-1-9z" fill="#E26734" data-index="82"></path>
<path transform="translate(906,186)" d="m0 0 5 5 9 11v2l-5-2-3-5-2-4-3-3z" fill="#D64D3E" data-index="83"></path>
<path transform="translate(247,947)" d="m0 0 9 5 6 4 4 4-4-1-15-9z" fill="#DA553E" data-index="84"></path>
<path transform="translate(416,809)" d="m0 0 3 1 7 11 3 5-4-2-7-8z" fill="#FB9014" data-index="85"></path>
<path transform="translate(653,568)" d="m0 0h2l-2 5-7 10-1 2h-2v3l-3 1v-3h2l2-5 3-5h2l1-4h2z" fill="#FBDD5D" data-index="86"></path>
<path transform="translate(324,515)" d="m0 0 4 1 9 13 1 5-2-1-1-5-4-2-4-6-3-3z" fill="#DB543B" data-index="87"></path>
<path transform="translate(714,484)" d="m0 0 1 2-12 17-3 2 1-5h2l1-4h2l4-8h2z" fill="#FCE25F" data-index="88"></path>
<path transform="translate(313,419)" d="m0 0 4 2 7 8 2 4-5-2-7-8z" fill="#FB8F13" data-index="89"></path>
<path transform="translate(952,254)" d="m0 0h3l7 13v2l-3-1v-2h-2l-5-10z" fill="#D74F3E" data-index="90"></path>
<path transform="translate(674,539)" d="m0 0 2 1-12 18h-2l2-6 4-7 3-1z" fill="#FBE05D" data-index="91"></path>
<path transform="translate(201,104)" d="m0 0m-1 1m-2 1h2l-2 4-2 2-3 1-4 5-4 3-2-1 10-10z" fill="#D9513E" data-index="92"></path>
<path transform="translate(233,274)" d="m0 0 4 1 7 6-1 4-2-1v-3l-5-2-3-3z" fill="#FB850E" data-index="93"></path>
<path transform="translate(550,409)" d="m0 0h2l-1 5-6 9-3-4 4-3z" fill="#E05C31" data-index="94"></path>
<path transform="translate(190,324)" d="m0 0 4 5 4 6v2l-4-2-6-9z" fill="#D74F3E" data-index="95"></path>
<path transform="translate(571,381)" d="m0 0 1 2h-2l-1 4-4 6-3-1 4-7z" fill="#E76B2B" data-index="96"></path>
<path transform="translate(205,290)" d="m0 0h1v6h2l3 10h-3l-3-7z" fill="#FB9B18" data-index="97"></path>
<path transform="translate(183,254)" d="m0 0 1 3-5 14-2 1 1-9z" fill="#D54D3E" data-index="98"></path>
<path transform="translate(240,402)" d="m0 0 4 1 4 6 4 2-4 2-4-3z" fill="#DA533B" data-index="99"></path>
<path transform="translate(648,264)" d="m0 0 1 3-3 5h-2l-1 4-2 2-1-4h2l2-6z" fill="#E36531" data-index="100"></path>
<path transform="translate(274,282)" d="m0 0h1v8h2v10l-2-1-1-4z" fill="#FB9817" data-index="101"></path>
<path transform="translate(113,832)" d="m0 0 4 2 2 5 5 1-2 4-9-10z" fill="#D54C3E" data-index="102"></path>
<path transform="translate(435,828)" d="m0 0 15 1v2h-11l-4-1z" fill="#FB9918" data-index="103"></path>
<path transform="translate(379,592)" d="m0 0 3 1 5 8-1 3-3-3-4-7z" fill="#DD5537" data-index="104"></path>
<path transform="translate(595,341)" d="m0 0 2 1-6 12-4 2 2-5h2l2-6z" fill="#DA5339" data-index="105"></path>
<path transform="translate(439,646)" d="m0 0 2 1-5 4-3 1h-7l2-4 7 1z" fill="#FBBD26" data-index="106"></path>
<path transform="translate(698,506)" d="m0 0 1 2-8 11-2 1v-3l2-1 4-7h2z" fill="#FCE564" data-index="107"></path>
<path transform="translate(317,503)" d="m0 0 5 5 4 5v2l-4-2-3-5z" fill="#D74F3E" data-index="108"></path>
<path transform="translate(351,395)" d="m0 0 4 2 3 8-4-2-3-6z" fill="#FB850F" data-index="109"></path>
<path transform="translate(796,225)" d="m0 0 8 1 5 2 2 4-15-6z" fill="#FB8B11" data-index="110"></path>
<path transform="translate(602,335)" d="m0 0v3l-7 11-1-3 5-8z" fill="#FB8B12" data-index="111"></path>
<path transform="translate(655,251)" d="m0 0 2 1-6 12-3-2 3-3z" fill="#DE5A38" data-index="112"></path>
<path transform="translate(472,794)" d="m0 0h1v14l-3-3v-5z" fill="#FB9516" data-index="113"></path>
<path transform="translate(70,769)" d="m0 0 3 1 3 5-1 4-5-7z" fill="#D44B3E" data-index="114"></path>
<path transform="translate(792,83)" d="m0 0 7 4 1 2-9-2z" fill="#DA533F" data-index="115"></path>
<path transform="translate(554,2)" d="m0 0 12 1-1 2h-9l-3-2z" fill="#D44B3E" data-index="116"></path>
</svg>