<svg width="126" height="53" viewBox="0 0 126 53" fill="none" xmlns="http://www.w3.org/2000/svg">
<path d="M13.04 43.77C12.9933 43.6767 12.8533 43.6067 12.62 43.56C12.5733 43.5133 12.4333 43.49 12.2 43.49H11.78C11.6867 43.5367 11.6167 43.56 11.57 43.56C11.57 43.6067 11.5467 43.63 11.5 43.63L11.22 43.56C11.1733 43.56 11.08 43.56 10.94 43.56C10.8467 43.56 10.7067 43.5367 10.52 43.49L10.1 43.35L9.54 43.56L8.42 43.49C8.32667 43.3967 8.21 43.3033 8.07 43.21C7.97667 43.1633 7.83667 43.1167 7.65 43.07C7.55667 43.07 7.39333 43.1633 7.16 43.35C6.83333 43.5367 6.64667 43.63 6.6 43.63C6.27333 43.63 6.11 43.49 6.11 43.21L6.32 42.58C6.27333 42.5333 6.25 42.3467 6.25 42.02L6.6 41.46C6.6 41.3667 6.55333 41.2733 6.46 41.18C6.36667 41.0867 6.32 40.9467 6.32 40.76L6.46 39.15C6.46 39.0567 6.57667 38.7767 6.81 38.31C6.71667 37.5633 6.69333 37.1667 6.74 37.12C7.20667 37.0733 7.46333 36.84 7.51 36.42C7.51 35.9067 7.44 35.51 7.3 35.23L6.81 34.95C6.67 34.81 6.6 34.6933 6.6 34.6C6.6 34.46 6.67 34.2967 6.81 34.11L7.09 33.62C7.13667 33.2 7.16 32.8267 7.16 32.5C7.16 32.1267 7.16 31.8233 7.16 31.59C7.16 30.7967 7.11333 30.3533 7.02 30.26L7.65 30.19L7.93 30.75C7.88333 30.5633 7.79 30.3767 7.65 30.19C7.55667 30.0033 7.41667 29.8167 7.23 29.63C7.13667 29.1167 7.04333 28.7667 6.95 28.58C6.90333 28.3467 6.88 28.2767 6.88 28.37C7.34667 27.5767 7.58 26.9233 7.58 26.41C7.58 25.99 7.46333 25.7333 7.23 25.64L6.88 25.43V25.15C6.88 24.6833 6.81 24.24 6.67 23.82C6.53 23.6333 6.39 23.3067 6.25 22.84L6.32 21.86L5.9 21.23L5.76 20.6L5.41 19.69C5.45667 19.4567 5.52667 19.06 5.62 18.5C5.48 18.3133 5.29333 18.0567 5.06 17.73L4.71 17.52L4.92 16.68C4.92 16.68 4.89667 16.68 4.85 16.68C4.75667 16.68 4.64 16.33 4.5 15.63L4.22 14.37C4.22 14.3233 4.08 13.9967 3.8 13.39C3.89333 13.25 3.89333 13.0633 3.8 12.83C3.42667 11.71 3.24 11.22 3.24 11.36C3.24 11.22 3.31 10.9867 3.45 10.66C3.49667 10.66 3.56667 10.7067 3.66 10.8C3.8 10.7067 3.87 10.6133 3.87 10.52L3.52 9.61C3.1 9.61 2.84333 9.49333 2.75 9.26C2.75 8.84 2.82 8.49 2.96 8.21C2.91333 8.11667 2.82 7.90667 2.68 7.58C2.54 7.25333 2.37667 6.78667 2.19 6.18C1.81667 4.92 1.63 4.22 1.63 4.08C1.58333 4.03333 1.53667 3.98666 1.49 3.94C1.44333 3.89333 1.37333 3.84667 1.28 3.8V3.45C1.14 3.21666 1.16333 3.03 1.35 2.89L1.14 2.68L0.86 1.21C0.953333 0.79 1.16333 0.58 1.49 0.58L1.98 0.719998C2.07333 0.906665 2.21333 1.02333 2.4 1.07L3.73 0.719998H4.29C4.43 0.719998 4.57 0.719998 4.71 0.719998C4.85 0.719998 4.99 0.696665 5.13 0.649999C6.01667 1.16333 6.53 1.42 6.67 1.42C6.85667 1.42 6.97333 1.35 7.02 1.21C7.16 0.976664 7.3 0.836663 7.44 0.789997C7.53333 0.743331 7.65 0.719998 7.79 0.719998C7.97667 0.673332 8.18667 0.649999 8.42 0.649999C8.93333 0.743331 9.19 1.07 9.19 1.63C9.19 1.86333 9.16667 2.05 9.12 2.19C9.07333 2.47 9.14333 3.68333 9.33 5.83L9.68 7.58L10.1 7.86V8.14C10.0067 8.23333 9.86667 8.42 9.68 8.7C9.68 8.88666 9.77333 9.00333 9.96 9.05C10.1467 9.14333 10.2633 9.19 10.31 9.19C10.31 9.37666 10.2867 9.51666 10.24 9.61L10.17 9.82L10.1 11.36H10.45C10.6833 11.36 10.8 11.5233 10.8 11.85C10.7533 13.81 10.8233 15.14 11.01 15.84C10.9167 15.98 10.9167 16.1667 11.01 16.4C11.1967 16.5867 11.43 16.89 11.71 17.31C11.85 16.9833 12.0367 16.7033 12.27 16.47C12.13 16.0967 12.0367 15.91 11.99 15.91C12.0367 15.8633 12.06 15.7467 12.06 15.56C12.2467 15.56 12.41 15.4667 12.55 15.28V15.21C12.55 15.1167 12.55 15.0233 12.55 14.93C12.5967 14.8367 12.6433 14.72 12.69 14.58L12.83 13.81C12.9233 13.81 13.0633 13.74 13.25 13.6C13.2033 13.4133 13.0633 13.32 12.83 13.32V13.04C12.83 12.9933 12.97 12.9 13.25 12.76V12.55C13.1567 12.4567 13.0633 12.41 12.97 12.41C13.2033 12.3167 13.4133 12.1067 13.6 11.78C13.74 11.36 13.88 10.7067 14.02 9.82C13.9733 9.63333 13.9733 9.30667 14.02 8.84L14.44 8.14C14.44 8.04667 14.44 7.90667 14.44 7.72C14.44 7.53333 14.4633 7.34667 14.51 7.16L14.86 5.55C15.5133 5.41 15.8867 4.73333 15.98 3.52C15.8867 3.38 15.7933 3.21666 15.7 3.03C15.7933 2.47 15.8633 2.09667 15.91 1.91C15.9567 1.67667 16.1667 1.37333 16.54 0.999998L16.75 1.49C16.9367 1.81666 17.1467 1.98 17.38 1.98C17.2867 1.98 17.87 1.81666 19.13 1.49L19.2 1.91C19.2 1.95667 19.27 2.02666 19.41 2.12H19.48C19.6667 2.12 19.8533 1.93333 20.04 1.56L20.39 1.49C20.4833 1.49 20.53 1.53666 20.53 1.63L20.46 1.84C20.46 1.88667 20.4367 1.93333 20.39 1.98C20.39 1.98 20.39 2.00333 20.39 2.05C20.4833 2.14333 20.5533 2.19 20.6 2.19C20.6933 2.19 20.8333 2.12 21.02 1.98L21.44 1.7C21.6267 1.74666 21.72 1.88666 21.72 2.12C21.8133 2.30666 21.86 2.42333 21.86 2.47C21.9067 2.47 22.0233 2.51666 22.21 2.61C22.35 2.75 22.4667 2.82 22.56 2.82C22.7467 2.82 22.9333 2.75 23.12 2.61C23.12 2.42333 23.0733 2.28333 22.98 2.19C22.8867 2.14333 22.84 2.07333 22.84 1.98C22.84 1.60666 23.2367 1.46666 24.03 1.56C24.2633 1.56 24.3333 1.67667 24.24 1.91L24.1 2.4C24.0533 2.54 23.96 2.75 23.82 3.03C23.7267 3.31 23.6333 3.63667 23.54 4.01C23.4467 4.33667 23.33 4.54667 23.19 4.64L22.77 4.99L22.84 5.41C22.84 5.50333 22.7933 5.66666 22.7 5.9C22.6533 6.13333 22.6067 6.48333 22.56 6.95L22.07 7.37C22.07 7.41667 22.07 7.51 22.07 7.65C22.07 7.74333 22.0467 7.88333 22 8.07C21.86 8.21 21.7433 8.35 21.65 8.49L21.58 9.54L20.95 9.47L20.88 9.54V9.75C20.9733 9.84333 21.1133 9.89 21.3 9.89C21.3467 9.93666 21.37 10.03 21.37 10.17C21.2767 10.4033 21.1367 10.7067 20.95 11.08C20.81 11.4533 20.6233 11.8967 20.39 12.41H20.25C20.11 12.41 19.8533 12.4567 19.48 12.55L20.18 13.04C20.0867 13.2267 19.9933 13.4133 19.9 13.6C19.8067 13.7867 19.7133 13.9733 19.62 14.16L19.41 14.86L18.92 15.56V16.75C18.64 16.9367 18.4067 17.24 18.22 17.66C17.9867 17.66 17.7767 17.8233 17.59 18.15C17.3567 18.5233 17.24 18.71 17.24 18.71C17.1933 18.71 17.1233 18.6633 17.03 18.57C16.9367 18.4767 16.89 18.4767 16.89 18.57C16.7033 18.7567 16.61 18.9667 16.61 19.2C16.61 19.4333 16.7033 19.6667 16.89 19.9C17.03 20.2267 17.1 20.4833 17.1 20.67C17.1 20.81 17.0767 20.9033 17.03 20.95V21.58C16.5633 21.9067 16.33 22.3033 16.33 22.77C16.33 22.9567 16.2367 23.2133 16.05 23.54C16.0033 23.82 16.0033 24.0533 16.05 24.24C16.0033 24.2867 15.98 24.38 15.98 24.52C15.7467 24.7067 15.5367 24.9867 15.35 25.36C15.1633 25.7333 15.0467 26.2467 15 26.9L14.93 29.42C14.93 29.6067 14.7667 29.8633 14.44 30.19H14.23C13.9033 30.19 13.74 30.26 13.74 30.4C13.74 30.6333 13.8567 30.82 14.09 30.96L14.58 31.31C14.6733 31.31 14.7433 31.3333 14.79 31.38L14.86 31.87C14.86 31.9633 14.86 32.0567 14.86 32.15C14.9067 32.1967 14.93 32.2433 14.93 32.29C14.8833 32.4767 14.8133 32.6633 14.72 32.85C14.6733 33.0367 14.6033 33.2467 14.51 33.48L14.79 34.39C14.7433 34.4367 14.6733 34.5767 14.58 34.81V35.09C14.58 35.37 14.6033 35.58 14.65 35.72L14.51 36.21V37.05C14.4633 37.0967 14.4167 37.19 14.37 37.33C14.3233 37.47 14.2767 37.6333 14.23 37.82L14.16 39.15C14.2067 39.57 14.2533 39.7567 14.3 39.71L13.95 40.48C13.9967 40.5267 14.0433 40.62 14.09 40.76C14.1367 40.8533 14.1833 40.97 14.23 41.11L14.09 41.67C14.09 41.7633 14.09 41.9033 14.09 42.09C14.09 42.23 14.0667 42.3933 14.02 42.58C13.7867 43.3733 13.46 43.77 13.04 43.77ZM5.06 2.12C5.10667 2.02666 5.08333 1.93333 4.99 1.84C4.89667 1.74667 4.78 1.74667 4.64 1.84C4.68667 1.93333 4.82667 2.02666 5.06 2.12ZM2.26 3.17C2.4 3.21667 2.54 3.14667 2.68 2.96C2.63333 2.91333 2.56333 2.89 2.47 2.89C2.33 2.89 2.26 2.98333 2.26 3.17ZM7.51 4.5C7.69667 4.5 7.81333 4.47667 7.86 4.43C7.81333 4.24333 7.69667 4.17333 7.51 4.22V4.5ZM19.69 4.99C19.7367 4.94333 19.69 4.85 19.55 4.71L19.34 4.85C19.3867 4.89666 19.4333 4.92 19.48 4.92C19.5733 4.92 19.6433 4.94333 19.69 4.99ZM7.58 5.27C7.67333 5.27 7.76667 5.22333 7.86 5.13C7.86 5.03666 7.83667 4.96666 7.79 4.92L7.51 5.13C7.55667 5.17667 7.58 5.22333 7.58 5.27ZM22.84 5.41V5.48V5.41ZM21.37 6.11V5.76H21.16L21.3 5.97L21.37 6.11ZM19.48 6.39C19.5267 6.29666 19.5033 6.20333 19.41 6.11C19.3167 6.01666 19.2 6.01666 19.06 6.11C19.1067 6.20333 19.2467 6.29666 19.48 6.39ZM19.76 8.77C19.9 8.77 20.1333 8.63 20.46 8.35C20.88 8.11667 21.09 7.93 21.09 7.79V7.72C21.09 7.48667 20.9033 7.23 20.53 6.95C20.11 7.27666 19.83 7.44 19.69 7.44C19.7367 7.48666 19.7833 7.58 19.83 7.72C19.7833 7.86 19.76 8.02333 19.76 8.21C19.76 8.35 19.76 8.53667 19.76 8.77ZM8.49 10.03C8.53667 9.93667 8.58333 9.86666 8.63 9.82C8.72333 9.72667 8.79333 9.63333 8.84 9.54H8.56C8.51333 9.54 8.42 9.65667 8.28 9.89L8.49 10.03ZM9.05 11.01C9.05 10.87 9.00333 10.66 8.91 10.38L8.63 10.31V10.59C8.77 10.8233 8.81667 10.9633 8.77 11.01H9.05ZM9.26 17.17C9.35333 17.17 9.44667 17.1233 9.54 17.03L9.47 16.82C9.42333 16.8667 9.35333 16.9833 9.26 17.17ZM6.46 17.87L6.88 17.8L6.46 17.66V17.87ZM6.46 19.27C6.55333 19.3167 6.64667 19.2933 6.74 19.2C6.83333 19.1067 6.83333 18.99 6.74 18.85C6.64667 18.8967 6.55333 19.0367 6.46 19.27ZM10.8 21.09C11.0333 21.09 11.1967 21.0667 11.29 21.02V20.74L10.31 19.97C10.17 20.0633 10.0067 20.25 9.82 20.53C10.0067 20.7167 10.17 20.8567 10.31 20.95C10.4967 20.9967 10.66 21.0433 10.8 21.09ZM14.51 20.74C14.5567 20.6933 14.6733 20.6233 14.86 20.53C14.8133 20.4833 14.6967 20.4833 14.51 20.53V20.74ZM15.35 21.3C15.49 21.3467 15.63 21.2767 15.77 21.09C15.7233 21.0433 15.6533 21.02 15.56 21.02C15.42 21.02 15.35 21.1133 15.35 21.3ZM9.68 23.82C9.68 23.68 9.65667 23.5867 9.61 23.54C9.51667 23.4467 9.4 23.4467 9.26 23.54C9.26 23.6333 9.4 23.7267 9.68 23.82ZM11.01 25.36C11.0567 25.3133 11.08 25.2433 11.08 25.15C11.08 25.01 10.9867 24.94 10.8 24.94C10.7533 25.08 10.8233 25.22 11.01 25.36ZM13.18 28.79C13.18 28.6967 13.1333 28.6033 13.04 28.51C12.9933 28.4633 12.9 28.4867 12.76 28.58C12.76 28.72 12.9 28.79 13.18 28.79ZM11.22 31.8C11.1733 31.7533 11.1267 31.7067 11.08 31.66C11.08 31.6133 11.0333 31.5667 10.94 31.52L10.73 31.87C10.9633 32.01 11.1267 32.08 11.22 32.08V31.8ZM11.29 40.62H11.71C11.7567 40.5267 11.8033 40.4333 11.85 40.34C11.8967 40.2 11.9433 40.0367 11.99 39.85C11.99 39.3833 11.85 39.15 11.57 39.15L10.8 39.22L10.73 40.2L11.29 40.62ZM8.7 41.11C8.84 41.1567 8.98 41.0867 9.12 40.9C9.07333 40.8533 9.00333 40.83 8.91 40.83C8.77 40.83 8.7 40.9233 8.7 41.11ZM11.5 42.16C11.5933 42.2067 11.7333 42.1367 11.92 41.95C11.8267 41.8567 11.7333 41.81 11.64 41.81C11.4533 41.81 11.4067 41.9267 11.5 42.16ZM27.8472 43.98C27.8005 43.9333 27.4505 43.8633 26.7972 43.77H25.7472C25.6072 43.63 25.5139 43.56 25.4672 43.56L24.9072 43.49C24.6739 43.2567 24.2772 42.93 23.7172 42.51L23.2972 41.04C23.2505 40.9933 23.1572 40.9467 23.0172 40.9C22.9239 40.8533 22.8072 40.7833 22.6672 40.69L22.5272 39.71C22.4805 39.6167 22.4339 39.5233 22.3872 39.43C22.3405 39.29 22.2705 39.1267 22.1772 38.94C22.1772 38.7067 22.2939 38.4733 22.5272 38.24C22.7139 38.0533 22.8072 37.9133 22.8072 37.82L22.6672 37.54C22.5739 37.3533 22.5272 37.26 22.5272 37.26L22.8072 36.28C22.7139 36.0933 22.6205 35.9067 22.5272 35.72C22.4339 35.5333 22.3405 35.3233 22.2472 35.09C22.2472 34.9033 22.3639 34.6233 22.5972 34.25C22.7372 34.0633 22.7839 33.97 22.7372 33.97C22.5505 33.83 22.4105 33.5733 22.3172 33.2V32.08C22.2705 31.8467 22.2239 31.59 22.1772 31.31C22.1305 31.03 22.0605 30.75 21.9672 30.47C21.9672 30.19 22.0605 29.9333 22.2472 29.7C22.4339 29.4667 22.5272 29.3033 22.5272 29.21C22.3872 29.07 22.2939 28.93 22.2472 28.79C22.2005 28.51 22.2005 27.95 22.2472 27.11C22.2472 27.0633 22.2005 26.9933 22.1072 26.9C22.0139 26.8067 21.9672 26.76 21.9672 26.76C21.9672 26.6667 22.0372 26.41 22.1772 25.99L22.3872 25.29C22.3872 25.1967 22.3172 25.1267 22.1772 25.08C22.0372 24.8467 21.9672 24.5667 21.9672 24.24L21.8972 22.91C21.9905 22.8167 22.1305 22.8167 22.3172 22.91L22.4572 22.7C22.1772 22.56 21.9905 22.35 21.8972 22.07C21.8039 21.6967 21.7105 21.37 21.6172 21.09C21.5705 20.81 21.5705 20.5767 21.6172 20.39L21.6872 19.76C21.6405 19.6667 21.5705 19.5267 21.4772 19.34C21.4772 19.1067 21.5705 18.8733 21.7572 18.64V18.15C21.9439 17.8233 22.0139 17.6367 21.9672 17.59C22.0605 17.59 22.0605 17.4733 21.9672 17.24C21.8739 17.0067 21.8505 16.89 21.8972 16.89C21.6639 16.33 21.5939 16.0033 21.6872 15.91C21.7805 15.63 21.8505 15.49 21.8972 15.49L21.3372 14.86C21.3839 14.7667 21.4072 14.65 21.4072 14.51C21.4072 14.37 21.4305 14.2067 21.4772 14.02L21.3372 13.95C21.2439 13.1567 21.2439 12.7133 21.3372 12.62L22.1772 12.41C22.2705 12.4567 22.3639 12.48 22.4572 12.48C22.5505 12.48 22.6439 12.5033 22.7372 12.55L22.9472 12.41C22.9939 12.3633 23.0872 12.34 23.2272 12.34C23.3205 12.3867 23.4139 12.4333 23.5072 12.48C23.6472 12.48 23.8105 12.5033 23.9972 12.55L24.4172 12.41C24.6972 12.3167 24.8372 12.27 24.8372 12.27L25.1172 12.48H25.7472C26.1672 12.48 26.5172 12.3867 26.7972 12.2C26.8905 12.1533 26.9839 12.1067 27.0772 12.06C27.1705 12.0133 27.2872 11.99 27.4272 11.99H27.5672C28.2205 11.99 28.5472 12.2467 28.5472 12.76L28.3372 13.95C28.2905 14.37 28.2905 14.6733 28.3372 14.86C28.4305 15.0467 28.4772 15.2333 28.4772 15.42C28.4772 15.6067 28.4772 15.77 28.4772 15.91C28.4772 16.2367 28.4072 16.5167 28.2672 16.75L28.4072 17.38C28.4072 17.4267 28.4072 17.4967 28.4072 17.59C28.4072 17.6833 28.3839 17.8467 28.3372 18.08C28.3839 18.1733 28.4072 18.4067 28.4072 18.78C28.3605 19.3867 28.2205 20.04 27.9872 20.74C28.2205 20.7867 28.4539 20.95 28.6872 21.23C28.5939 21.3233 28.4772 21.51 28.3372 21.79L28.4072 24.59C28.4072 24.6367 28.4305 24.6833 28.4772 24.73C28.5239 24.9167 28.5472 25.1033 28.5472 25.29C28.5472 25.4767 28.5472 25.6867 28.5472 25.92C28.3605 26.0133 28.2672 26.2 28.2672 26.48C28.2672 26.9467 28.3139 27.2967 28.4072 27.53C28.5005 27.7167 28.5705 27.7867 28.6172 27.74L28.6872 29.49L28.6172 30.47C28.6639 30.5167 28.7105 30.5633 28.7572 30.61C28.8505 30.6567 28.9205 30.7267 28.9672 30.82C29.1072 31.0067 29.1772 31.2167 29.1772 31.45L28.9672 31.87C29.0605 32.2433 29.0605 32.4767 28.9672 32.57C28.8272 32.6167 28.5705 32.8267 28.1972 33.2L28.3372 33.34C28.3372 33.2933 28.4072 33.2467 28.5472 33.2H28.6872C28.9672 33.2 29.1072 33.3633 29.1072 33.69C28.9205 33.97 28.8039 34.25 28.7572 34.53L28.9672 35.09C29.1072 35.4167 29.0839 35.6267 28.8972 35.72L28.9672 37.47L29.1772 37.68C29.4105 37.7267 29.6672 37.7733 29.9472 37.82C30.2739 37.82 30.6005 37.82 30.9272 37.82L32.4672 37.19C32.7005 36.7233 32.8172 36.28 32.8172 35.86C32.8172 35.3467 32.7939 34.95 32.7472 34.67C32.7472 34.39 32.7705 34.2267 32.8172 34.18C32.8172 34.18 32.7705 33.8067 32.6772 33.06L32.9572 31.94L32.5372 30.82L32.3972 27.95C32.4905 27.9033 32.5605 27.8333 32.6072 27.74C32.7005 27.6467 32.7939 27.5533 32.8872 27.46C32.7939 27.46 32.6305 27.39 32.3972 27.25L32.4672 26.97C32.4672 26.9233 32.4672 26.9 32.4672 26.9C32.5139 26.8533 32.5372 26.8067 32.5372 26.76C32.5372 26.5733 32.4672 26.2933 32.3272 25.92C32.1872 25.5 32.1172 25.29 32.1172 25.29V25.08C32.1172 24.7533 32.2339 24.59 32.4672 24.59C32.5605 24.59 32.6305 24.6133 32.6772 24.66C32.6772 24.7067 32.7239 24.73 32.8172 24.73L33.0972 24.59C32.8639 24.4967 32.6072 24.24 32.3272 23.82L32.4672 23.33C32.2339 23.0033 32.1172 22.77 32.1172 22.63C32.1639 22.5367 32.1872 22.3267 32.1872 22C32.1872 21.7667 32.1639 21.58 32.1172 21.44C32.1172 21.3 32.1172 21.1833 32.1172 21.09C32.1172 20.5767 32.1405 20.25 32.1872 20.11C32.2805 19.9233 32.3272 19.8767 32.3272 19.97L32.1172 19.34C32.0705 19.1067 32.0005 18.9667 31.9072 18.92C31.8605 18.8733 31.8372 18.8267 31.8372 18.78C31.8372 18.6867 31.9305 18.4767 32.1172 18.15L32.3972 17.59L31.9772 17.03V16.47C31.9772 16.33 31.9772 16.1667 31.9772 15.98C31.9772 15.7933 31.9539 15.5833 31.9072 15.35C31.9539 15.21 31.9539 14.9767 31.9072 14.65L31.7672 14.09L31.9772 12.9L31.8372 12.62C31.7905 12.5267 31.7439 12.4567 31.6972 12.41C31.6505 12.3167 31.6272 12.2233 31.6272 12.13C31.6272 11.8967 31.6505 11.7333 31.6972 11.64L32.3972 11.57L33.2372 11.99L33.9372 11.78C34.1705 11.78 34.3805 11.8033 34.5672 11.85C34.7539 11.85 34.9172 11.8733 35.0572 11.92L35.4772 12.27C35.4772 12.13 35.6872 11.9667 36.1072 11.78L36.6672 11.85C36.8539 11.8033 37.0872 11.7567 37.3672 11.71C37.6939 11.6167 38.0439 11.5233 38.4172 11.43C38.7905 11.6633 39.0005 12.06 39.0472 12.62L38.8372 13.25C38.6505 13.7633 38.5572 14.3467 38.5572 15L38.6272 16.68C38.6272 16.7267 38.6272 16.7967 38.6272 16.89C38.6739 16.9367 38.6972 17.0067 38.6972 17.1L38.7672 17.66C38.7672 17.7533 38.7205 17.94 38.6272 18.22C38.5339 18.5 38.3939 18.6167 38.2072 18.57C38.2072 18.7567 38.3705 18.85 38.6972 18.85H38.8372L39.0472 19.13L39.1872 21.09C38.8605 21.7433 38.6972 22.0467 38.6972 22C38.6972 22.0933 38.7905 22.2333 38.9772 22.42C39.1172 22.6067 39.1872 22.7467 39.1872 22.84L39.3972 26.76L39.1872 28.09L38.9772 29.35C39.0705 29.49 39.2339 29.7933 39.4672 30.26C39.5605 30.6333 39.6072 30.96 39.6072 31.24C39.6539 31.5667 39.6539 31.73 39.6072 31.73L39.1872 32.57C39.3739 32.6633 39.5605 32.8033 39.7472 32.99C39.7472 33.13 39.6305 33.27 39.3972 33.41C39.5372 33.5033 39.6305 33.6667 39.6772 33.9L39.6072 34.18C39.5139 34.46 39.4672 34.6 39.4672 34.6L39.7472 37.4C39.7472 37.4 39.7472 37.5167 39.7472 37.75C39.7472 37.9833 39.7239 38.3567 39.6772 38.87C39.6772 38.87 39.6305 38.9867 39.5372 39.22C39.5839 39.36 39.6072 39.5933 39.6072 39.92C39.6072 39.9667 39.5372 40.0367 39.3972 40.13C39.4905 40.27 39.6539 40.3867 39.8872 40.48V41.81C39.9339 41.8567 39.9572 41.9267 39.9572 42.02C39.9572 42.1133 39.9805 42.23 40.0272 42.37C40.0739 42.5567 40.0039 42.72 39.8172 42.86L38.2072 43.14C38.0205 43.14 37.5772 43.0933 36.8772 43C36.2239 42.9533 35.8739 42.9533 35.8272 43C35.6405 43.0467 35.4305 43.07 35.1972 43.07C35.0105 43.1167 34.8005 43.1867 34.5672 43.28C34.3805 43.2333 34.1939 43.21 34.0072 43.21C33.8205 43.21 33.6105 43.21 33.3772 43.21H33.3072C33.0272 43.21 32.8872 42.93 32.8872 42.37C32.8405 41.7633 32.6772 41.4833 32.3972 41.53C32.3972 41.53 32.2572 41.5767 31.9772 41.67L31.7672 41.6L31.4872 41.53L30.6472 42.65C30.5539 42.5567 30.3905 42.6267 30.1572 42.86C29.8772 43.14 29.6905 43.28 29.5972 43.28L28.6172 43.49C28.4305 43.6767 28.1739 43.84 27.8472 43.98ZM27.0772 14.51C27.1239 14.37 27.1005 14.2533 27.0072 14.16C26.9605 14.0667 26.8439 14.1133 26.6572 14.3C26.7505 14.44 26.8905 14.51 27.0772 14.51ZM34.2172 14.58L34.5672 14.44V14.37H34.2872C34.2405 14.37 34.2172 14.44 34.2172 14.58ZM34.9172 15.28C35.0105 15.42 35.1505 15.3967 35.3372 15.21C35.1039 14.8367 34.9639 14.86 34.9172 15.28ZM25.0472 23.89C25.0472 23.5633 25.2105 23.1433 25.5372 22.63L26.0972 22.56L26.0272 22.28C26.0272 22.1867 25.9339 22.0933 25.7472 22L25.4672 22.21C25.3272 22.0233 25.1872 21.93 25.0472 21.93L24.8372 22C24.5572 22.7467 24.4172 23.1433 24.4172 23.19C24.4172 23.2833 24.6272 23.5167 25.0472 23.89ZM37.0172 25.85C37.0639 25.71 37.0172 25.5933 36.8772 25.5C36.7839 25.4067 36.6905 25.4533 36.5972 25.64C36.6905 25.78 36.8305 25.85 37.0172 25.85ZM27.2172 31.66L27.4272 31.52C27.4272 31.4267 27.4039 31.3567 27.3572 31.31L27.2172 31.66ZM24.6272 34.04C24.7205 34.0867 24.8139 34.0633 24.9072 33.97C24.9539 33.9233 24.9305 33.8067 24.8372 33.62C24.6972 33.6667 24.6272 33.8067 24.6272 34.04ZM37.7172 37.19C38.1839 37.19 38.4405 37.0267 38.4872 36.7C38.3005 36.7 38.0439 36.6067 37.7172 36.42H37.4372L37.5072 36.91C37.5072 37.0967 37.5772 37.19 37.7172 37.19ZM28.2672 38.24C28.2672 38.1467 28.2205 38.0533 28.1272 37.96C28.0805 37.8667 27.9872 37.89 27.8472 38.03C27.8472 38.17 27.9872 38.24 28.2672 38.24ZM68.3471 43.63L67.8571 43.42C67.5771 43.3267 67.2738 43.28 66.9471 43.28L66.3871 43.49L65.8271 43.35C65.7804 43.3967 65.7104 43.42 65.6171 43.42C65.5238 43.42 65.4304 43.4433 65.3371 43.49L65.0571 43.35C64.8704 43.2567 64.7538 43.21 64.7071 43.21L64.3571 43.28C64.3104 43.0467 64.2638 42.86 64.2171 42.72C64.2171 42.5333 64.2171 42.3933 64.2171 42.3L64.4271 41.67C64.4738 41.4833 64.4971 41.1567 64.4971 40.69C64.4971 40.1767 64.4971 39.5467 64.4971 38.8L64.6371 38.03C64.6371 37.6567 64.7071 37.26 64.8471 36.84C65.3138 36.6533 65.5471 36.42 65.5471 36.14L64.5671 34.67L64.6371 32.64C64.6371 32.1733 64.8471 31.7067 65.2671 31.24C65.0338 30.68 64.9171 30.4933 64.9171 30.68L64.9871 28.3C65.1271 28.3 65.2438 28.2533 65.3371 28.16L64.9871 27.74L65.1271 27.11C64.8938 26.8767 64.7771 26.5267 64.7771 26.06C64.7771 25.78 64.8004 25.5467 64.8471 25.36L64.6371 25.08C64.7771 24.94 64.9171 24.8467 65.0571 24.8C64.9638 24.52 64.9171 24.3333 64.9171 24.24C64.9171 23.96 65.0571 23.75 65.3371 23.61C65.1504 23.0033 65.0571 22.7233 65.0571 22.77V22.84C65.0571 22.7933 65.0571 22.77 65.0571 22.77C65.1038 22.49 65.2671 22.21 65.5471 21.93C65.5004 21.8833 65.4538 21.8367 65.4071 21.79C65.3604 21.7433 65.3138 21.6967 65.2671 21.65V20.46C65.0804 20.2733 64.9871 20.1333 64.9871 20.04V18.85C64.9404 18.8033 64.7538 18.78 64.4271 18.78L64.0071 18.85C63.8671 18.8967 63.7271 18.92 63.5871 18.92L63.3771 18.85C63.2838 18.8033 63.1904 18.78 63.0971 18.78C63.0504 18.78 62.9338 18.8267 62.7471 18.92L62.8871 19.2C62.7471 19.62 62.5838 19.83 62.3971 19.83L62.3271 19.76H62.1871C62.2804 19.76 62.0238 19.9233 61.4171 20.25C61.4171 20.4367 61.4171 20.6233 61.4171 20.81C61.4171 20.95 61.3938 21.1133 61.3471 21.3C61.3004 21.86 61.2071 22.14 61.0671 22.14H60.9971L60.9271 22.21C60.9271 22.5367 61.0671 22.7 61.3471 22.7C61.4404 22.7 61.5338 22.6533 61.6271 22.56L61.3471 23.47C61.3938 23.5633 61.4404 23.68 61.4871 23.82C61.5338 23.9133 61.5804 24.0067 61.6271 24.1L61.2771 24.8C61.2304 24.7533 61.1138 24.7533 60.9271 24.8C61.2538 24.94 61.4171 25.1733 61.4171 25.5C61.4171 25.64 61.3004 25.8267 61.0671 26.06C61.2538 26.48 61.3938 26.6433 61.4871 26.55C61.4404 26.7367 61.3704 27.11 61.2771 27.67V28.51C61.2771 29.0233 61.2538 29.35 61.2071 29.49L60.9971 29.98C60.9971 29.98 61.0671 30.0967 61.2071 30.33L61.3471 30.75C61.3938 31.0767 61.4171 31.45 61.4171 31.87C61.4171 32.29 61.4171 32.8033 61.4171 33.41L61.2071 34.39C61.1604 34.4833 61.1371 34.67 61.1371 34.95C61.1371 35.09 61.1371 35.2533 61.1371 35.44C61.1838 35.58 61.2304 35.7667 61.2771 36C61.2771 36.0933 61.2538 36.1867 61.2071 36.28C61.2071 36.3733 61.1838 36.4667 61.1371 36.56C60.9504 36.9333 60.8571 37.19 60.8571 37.33L61.0671 38.31L60.6471 39.22C60.4604 39.5467 60.3671 39.8033 60.3671 39.99C60.3671 40.0367 60.3904 40.06 60.4371 40.06C60.4371 40.06 60.5771 40.0133 60.8571 39.92L61.0671 40.34C61.1138 40.8067 61.1371 41.1333 61.1371 41.32C61.1838 41.5067 61.2071 41.5767 61.2071 41.53L61.0671 42.09V43.07C60.1338 43.2567 59.6438 43.35 59.5971 43.35H59.6671C59.6671 43.35 59.6438 43.35 59.5971 43.35L59.3871 43.28C59.2004 43.1867 59.0838 43.14 59.0371 43.14L58.4771 43.35C58.4771 43.35 58.3371 43.3033 58.0571 43.21L57.6371 43C57.5438 43 57.4504 43.0233 57.3571 43.07C57.2171 43.07 56.9138 42.8833 56.4471 42.51C56.3071 43.0233 56.0271 43.28 55.6071 43.28C55.2804 43.28 54.9771 43.21 54.6971 43.07C54.4171 42.8367 54.2771 42.4167 54.2771 41.81C54.2771 41.1567 54.5571 40.6667 55.1171 40.34L54.6271 39.99L54.6971 39.57C54.5571 39.15 54.4871 38.8933 54.4871 38.8C54.5338 38.7067 54.5804 38.59 54.6271 38.45C54.7204 38.2633 54.7904 38.0533 54.8371 37.82L54.6971 36.7C54.6971 36.3733 54.8138 36.0933 55.0471 35.86C55.0471 35.72 54.9771 35.58 54.8371 35.44C54.7438 35.2533 54.6971 35.1133 54.6971 35.02L54.9071 34.46L55.0471 33.9L54.7671 33.06L54.9071 32.08L55.0471 31.24C55.0471 31.24 55.0004 31.1933 54.9071 31.1C54.7671 30.8667 54.6971 30.5867 54.6971 30.26C54.6971 29.8867 54.7671 29.4667 54.9071 29C55.0471 28.86 55.1404 28.6967 55.1871 28.51L55.0471 27.81C54.9071 27.4367 54.8371 27.2033 54.8371 27.11L55.1171 25.71C55.5838 25.6633 55.8171 25.57 55.8171 25.43C55.8171 25.3367 55.7238 25.1967 55.5371 25.01C55.3971 24.87 55.2804 24.7067 55.1871 24.52C55.2338 24.38 55.2571 24.1 55.2571 23.68C55.1171 23.3533 55.0238 23.1667 54.9771 23.12C55.0238 23.0733 55.0704 23.0033 55.1171 22.91C55.1638 22.8167 55.2104 22.7 55.2571 22.56C55.2571 22.56 55.1638 22.3967 54.9771 22.07L55.0471 19.06C55.0938 18.8733 55.0938 18.7567 55.0471 18.71L54.9071 18.78C54.7671 18.5933 54.6038 18.43 54.4171 18.29L53.8571 18.36C53.6704 18.4067 53.5304 18.4533 53.4371 18.5C53.3438 18.5 53.2504 18.5 53.1571 18.5C52.6904 18.8733 52.5038 19.06 52.5971 19.06L52.1771 18.99C52.1304 19.4567 51.9904 19.8767 51.7571 20.25C51.5704 20.3433 51.3838 20.4833 51.1971 20.67L51.0571 21.16L51.3371 22.28C51.3371 22.28 51.2904 22.3733 51.1971 22.56C51.0571 22.7467 50.9871 22.8867 50.9871 22.98L51.2671 24.38C51.2671 24.4267 51.1504 24.7533 50.9171 25.36C50.6838 26.06 50.5671 26.41 50.5671 26.41V26.62C50.6604 26.5733 50.7304 26.5267 50.7771 26.48C50.8704 26.4333 50.9638 26.3867 51.0571 26.34L51.1971 27.95L50.9871 29.14L50.7071 30.33C50.7071 30.6567 50.8004 30.9833 50.9871 31.31C50.8938 31.5433 50.7538 31.66 50.5671 31.66C50.7071 32.4067 50.7771 32.9433 50.7771 33.27C50.7304 33.3633 50.6838 33.48 50.6371 33.62C50.5904 33.76 50.5438 33.9233 50.4971 34.11L50.5671 34.46C50.6604 34.6467 50.7304 34.7633 50.7771 34.81C50.8238 34.9967 50.8471 35.2067 50.8471 35.44C50.8471 35.6267 50.8471 35.8833 50.8471 36.21C50.7538 36.1167 50.6604 36.42 50.5671 37.12L50.7071 37.4C50.8471 37.68 50.7538 37.89 50.4271 38.03C50.4271 38.0767 50.4971 38.17 50.6371 38.31C50.7304 38.4967 50.7771 38.6133 50.7771 38.66C50.7771 38.8 50.6838 38.8933 50.4971 38.94L50.0071 39.15V39.43C50.2404 39.5233 50.4038 39.64 50.4971 39.78C50.4504 39.9667 50.4271 40.2 50.4271 40.48C50.4271 40.7133 50.4271 41.0167 50.4271 41.39C50.5671 42.1367 50.6371 42.4633 50.6371 42.37C50.6371 42.8367 50.3804 43.07 49.8671 43.07C49.8204 43.07 49.7038 43.0467 49.5171 43C49.3771 42.9067 49.2604 42.8367 49.1671 42.79C49.1204 42.79 49.0738 42.8133 49.0271 42.86C48.9338 42.9533 48.8404 43 48.7471 43L48.6071 42.93C48.5604 42.8833 48.5138 42.86 48.4671 42.86L47.7671 43.21C47.7204 43.1633 47.5571 43.0933 47.2771 43C47.0438 42.9533 46.8338 42.93 46.6471 42.93C46.5071 42.8833 46.3904 42.86 46.2971 42.86L45.5971 42.93C45.3638 42.9767 45.1771 43 45.0371 43C44.8971 43 44.8038 43 44.7571 43C44.7104 43 44.6171 42.93 44.4771 42.79C44.2904 42.65 44.1738 42.58 44.1271 42.58L43.7071 42.93H43.3571V42.72C43.3571 42.6267 43.3571 42.4867 43.3571 42.3C43.3571 42.1133 43.3804 41.88 43.4271 41.6C43.6138 41.6 43.8004 41.53 43.9871 41.39C43.9871 41.39 43.8004 41.1567 43.4271 40.69V39.71C43.6604 39.4767 43.7771 39.29 43.7771 39.15C43.7771 39.01 43.7071 38.8 43.5671 38.52C43.4271 38.24 43.3571 38.03 43.3571 37.89C43.3571 37.8433 43.4738 37.6567 43.7071 37.33L43.6371 36.63C43.6838 36.5367 43.7071 36.4433 43.7071 36.35C43.7071 36.2567 43.7304 36.14 43.7771 36L43.6371 35.65C43.6371 35.65 43.6838 35.5567 43.7771 35.37L43.8471 35.16C43.8471 35.1133 43.8471 35.0433 43.8471 34.95C43.8471 34.8567 43.8238 34.74 43.7771 34.6C43.7304 34.4133 43.6838 34.2733 43.6371 34.18C43.6371 34.04 43.6371 33.9467 43.6371 33.9V32.22L43.7771 32.01C43.6838 32.01 43.6371 31.9633 43.6371 31.87L43.7771 31.8C43.8238 31.7067 43.8471 31.6133 43.8471 31.52C43.8938 31.38 43.8938 31.2167 43.8471 31.03L43.7771 30.68C43.7771 30.6333 43.7771 30.54 43.7771 30.4C43.7771 30.26 43.7538 30.0733 43.7071 29.84C43.7071 29.9333 43.8471 29.7 44.1271 29.14C44.1738 29 44.1971 28.6967 44.1971 28.23C44.1971 28.2767 44.0571 28.1367 43.7771 27.81V27.6C43.8238 27.46 43.8704 27.2967 43.9171 27.11C44.0104 26.9233 44.0804 26.7367 44.1271 26.55L43.9871 26.13C43.8938 25.85 43.8471 25.71 43.8471 25.71C43.8471 25.43 43.9171 25.2667 44.0571 25.22C44.1971 25.1267 44.2671 25.0333 44.2671 24.94C44.2671 25.0333 44.1738 24.8933 43.9871 24.52V24.1C43.9871 23.8667 44.0804 23.6567 44.2671 23.47C44.4071 23.2367 44.4771 23.12 44.4771 23.12C44.2904 22.8867 44.0804 22.6067 43.8471 22.28L44.1971 20.95C44.2904 20.8567 44.3604 20.7633 44.4071 20.67L44.0571 20.25V19.06C44.5238 18.92 44.7571 18.8733 44.7571 18.92C44.7571 18.78 44.6638 18.6167 44.4771 18.43C44.5238 18.29 44.5471 18.0333 44.5471 17.66C44.2671 17.1 44.1271 16.6567 44.1271 16.33L44.4771 13.46C44.4304 13.2267 44.3838 12.97 44.3371 12.69C44.2904 12.3633 44.2204 12.0367 44.1271 11.71C44.1271 11.43 44.2671 11.29 44.5471 11.29C44.6404 11.29 44.8038 11.3833 45.0371 11.57C45.2238 11.7567 45.3638 11.85 45.4571 11.85L45.5971 11.78H45.7371C45.7838 11.78 45.8304 11.8033 45.8771 11.85C45.9238 11.85 45.9938 11.8733 46.0871 11.92C46.2271 12.06 46.3438 12.13 46.4371 12.13H46.9271C46.9271 12.27 46.9038 12.41 46.8571 12.55L46.9971 12.69C47.1371 12.69 47.2538 12.55 47.3471 12.27C47.4871 11.99 47.5338 11.7333 47.4871 11.5H47.9071C48.1404 11.7333 48.2804 11.85 48.3271 11.85C48.4671 11.85 48.5604 11.8267 48.6071 11.78L48.8171 11.71L49.5171 11.92L50.2171 12.2C50.3104 12.2 50.4504 12.1067 50.6371 11.92C50.7304 12.0133 50.8471 12.13 50.9871 12.27C51.1271 12.3633 51.2904 12.48 51.4771 12.62C51.4304 12.6667 51.3604 12.7367 51.2671 12.83C51.2204 12.9233 51.1271 13.04 50.9871 13.18C51.2671 13.5533 51.5238 13.74 51.7571 13.74L51.8971 13.67C52.0371 13.53 52.1304 13.4133 52.1771 13.32L52.8771 13.11C53.2504 13.0167 53.4371 12.83 53.4371 12.55C53.5771 12.41 53.7171 12.3167 53.8571 12.27C54.0904 12.0833 54.3938 11.99 54.7671 11.99C54.7671 11.99 54.8604 12.0367 55.0471 12.13C55.0938 12.0833 55.3271 11.99 55.7471 11.85L56.3071 11.78C56.4938 11.5933 56.6338 11.5 56.7271 11.5C56.8204 11.5 56.9604 11.57 57.1471 11.71C57.2871 11.85 57.4038 11.92 57.4971 11.92L58.0571 11.71C58.1504 11.71 58.6404 11.99 59.5271 12.55H59.8771L60.7171 13.39V13.53C60.7171 13.7633 60.8338 13.9967 61.0671 14.23C60.8804 14.23 60.7871 14.3 60.7871 14.44C60.7871 14.9533 61.2304 15.21 62.1171 15.21C62.1638 15.21 62.3504 15 62.6771 14.58C63.0504 14.16 63.2838 13.95 63.3771 13.95V14.02C63.5638 13.88 63.6338 13.7167 63.5871 13.53L63.4471 13.11C63.4471 12.83 63.5638 12.69 63.7971 12.69L64.2871 13.11C64.3804 13.0633 64.4504 13.04 64.4971 13.04C64.5904 13.04 64.6604 13.0167 64.7071 12.97C64.8938 12.9233 64.9871 12.8067 64.9871 12.62V12.41C65.0804 12.4567 65.2204 12.48 65.4071 12.48C65.7338 12.48 65.8971 12.3167 65.8971 11.99V11.85C65.9904 11.9433 66.1771 12.0833 66.4571 12.27H66.6671C67.2738 12.27 67.5771 12.0833 67.5771 11.71L68.2771 12.2C68.3704 12.48 68.5104 12.76 68.6971 13.04C68.7904 13.04 68.9304 12.8067 69.1171 12.34H69.4671C69.5604 12.5733 69.7004 12.69 69.8871 12.69L70.2371 12.62C70.3304 12.62 70.4238 12.7367 70.5171 12.97V13.25C70.5638 13.2967 70.6804 13.3667 70.8671 13.46L71.6371 14.79C71.5904 14.8367 71.5671 14.93 71.5671 15.07C71.5671 15.1633 71.5438 15.28 71.4971 15.42L71.8471 15.84C71.8938 15.98 71.9171 16.2367 71.9171 16.61C71.9171 16.9833 71.9171 17.4733 71.9171 18.08V18.15L71.8471 18.29C71.8471 18.29 71.8704 18.4067 71.9171 18.64C71.9638 18.6867 71.9171 18.8733 71.7771 19.2V19.34C71.5904 19.3867 71.4271 19.5267 71.2871 19.76V20.04C71.2871 20.1333 71.2404 20.2733 71.1471 20.46C71.0538 20.6467 71.0071 20.7633 71.0071 20.81C71.0071 20.9033 71.0771 21.0667 71.2171 21.3C71.5438 22.14 71.6838 22.6533 71.6371 22.84C71.3571 22.9333 71.1938 23.2133 71.1471 23.68L71.8471 23.96V24.24C71.8004 24.2867 71.7538 24.3333 71.7071 24.38C71.6604 24.4267 71.5904 24.4967 71.4971 24.59C71.4971 24.6833 71.5671 24.8 71.7071 24.94C71.7538 25.0333 71.7771 25.1033 71.7771 25.15C71.8238 25.1967 71.8471 25.2433 71.8471 25.29C71.8471 25.3833 71.7304 25.5467 71.4971 25.78C71.5904 26.2 71.6604 26.55 71.7071 26.83C71.8004 27.11 71.8238 27.32 71.7771 27.46V30.54C71.7771 30.6333 71.6604 31.0767 71.4271 31.87C71.4738 32.0567 71.4971 32.1733 71.4971 32.22C71.5438 32.2667 71.5671 32.2667 71.5671 32.22V34.53L71.4971 34.74C71.4038 34.9267 71.3571 35.02 71.3571 35.02C71.4504 35.44 71.4738 35.6967 71.4271 35.79L71.0771 36.28L71.0071 37.61C70.8671 37.47 70.7271 37.4 70.5871 37.4C70.3071 37.4 70.1671 37.5167 70.1671 37.75C70.1671 37.9833 70.3071 38.2167 70.5871 38.45C70.7738 38.6367 70.9604 38.73 71.1471 38.73V39.29C71.2871 39.6167 71.3804 39.78 71.4271 39.78L71.0771 40.76C71.0771 40.8067 71.0771 40.9 71.0771 41.04C71.1238 41.1333 71.1704 41.2733 71.2171 41.46C71.2638 41.46 71.2404 41.6467 71.1471 42.02C71.3338 42.2067 71.4271 42.3933 71.4271 42.58C71.4271 42.72 71.3571 42.9067 71.2171 43.14C71.0771 43.3733 70.9371 43.49 70.7971 43.49L70.3071 43.56H69.8171L69.3971 43.42C69.1171 43.28 68.9538 43.21 68.9071 43.21C68.8604 43.35 68.6738 43.49 68.3471 43.63ZM48.3971 13.11L48.6771 12.9L48.6071 12.76C48.5138 12.8533 48.4438 12.97 48.3971 13.11ZM54.6971 14.65L55.1871 14.51C55.0471 14.2767 54.8138 14.0667 54.4871 13.88C54.4404 13.9267 54.3704 14.0667 54.2771 14.3V14.51C54.3704 14.65 54.5104 14.6967 54.6971 14.65ZM45.6671 15.28C45.8071 15.28 45.9004 15.2567 45.9471 15.21C46.0404 15.1167 46.0404 15 45.9471 14.86C45.8538 14.86 45.7604 15 45.6671 15.28ZM65.8271 16.89C65.9204 16.89 66.1538 16.7733 66.5271 16.54L66.6671 15.77C66.6671 15.5833 66.5504 15.3733 66.3171 15.14L66.0371 15.21C65.9438 15.2567 65.8738 15.3033 65.8271 15.35C65.7804 15.35 65.7338 15.35 65.6871 15.35C65.1271 15.35 64.8004 15.35 64.7071 15.35C64.7538 15.4433 64.9171 15.6533 65.1971 15.98C65.1504 16.1667 65.1504 16.3533 65.1971 16.54C65.3838 16.7267 65.5938 16.8433 65.8271 16.89ZM49.0271 19.69C49.0738 19.5967 49.0271 19.5033 48.8871 19.41C48.8404 19.3633 48.7471 19.3633 48.6071 19.41C48.6071 19.5967 48.7471 19.69 49.0271 19.69ZM59.8771 19.97C59.8771 19.83 59.8538 19.7367 59.8071 19.69C59.7138 19.5967 59.5971 19.5967 59.4571 19.69C59.4571 19.7833 59.5971 19.8767 59.8771 19.97ZM54.9771 23.19C54.9771 23.0967 54.9771 23.0733 54.9771 23.12C54.9771 23.12 54.9771 23.1433 54.9771 23.19ZM69.1871 28.23C69.1871 28.1367 69.1404 28.0433 69.0471 27.95C69.0004 27.8567 68.9071 27.88 68.7671 28.02C68.7671 28.16 68.9071 28.23 69.1871 28.23ZM46.6471 34.39C46.8338 34.39 47.0204 34.25 47.2071 33.97C47.3471 33.7367 47.4171 33.5267 47.4171 33.34C47.2771 33.1067 46.9971 32.8967 46.5771 32.71H46.5071C46.0404 32.71 45.6671 33.0367 45.3871 33.69C45.7138 34.0633 46.1338 34.2967 46.6471 34.39ZM48.0471 39.78C48.0938 39.7333 48.0471 39.64 47.9071 39.5L47.6971 39.64C47.7904 39.64 47.8604 39.6633 47.9071 39.71L48.0471 39.78ZM71.4271 39.71C71.4271 39.8033 71.4271 39.8267 71.4271 39.78V39.71ZM48.8171 41.46V41.39C48.8171 41.25 48.7238 41.1333 48.5371 41.04C48.3971 40.9467 48.2571 40.9467 48.1171 41.04V41.25C48.1171 41.5767 48.3504 41.6467 48.8171 41.46ZM100.544 43.63L100.054 43.42C99.7744 43.3267 99.471 43.28 99.1444 43.28L98.5844 43.49L98.0244 43.35C97.9777 43.3967 97.9077 43.42 97.8144 43.42C97.721 43.42 97.6277 43.4433 97.5344 43.49L97.2544 43.35C97.0677 43.2567 96.951 43.21 96.9044 43.21L96.5544 43.28C96.5077 43.0467 96.461 42.86 96.4144 42.72C96.4144 42.5333 96.4144 42.3933 96.4144 42.3L96.6244 41.67C96.671 41.4833 96.6944 41.1567 96.6944 40.69C96.6944 40.1767 96.6944 39.5467 96.6944 38.8L96.8344 38.03C96.8344 37.6567 96.9044 37.26 97.0444 36.84C97.511 36.6533 97.7444 36.42 97.7444 36.14L96.7644 34.67L96.8344 32.64C96.8344 32.1733 97.0444 31.7067 97.4644 31.24C97.231 30.68 97.1144 30.4933 97.1144 30.68L97.1844 28.3C97.3244 28.3 97.441 28.2533 97.5344 28.16L97.1844 27.74L97.3244 27.11C97.091 26.8767 96.9744 26.5267 96.9744 26.06C96.9744 25.78 96.9977 25.5467 97.0444 25.36L96.8344 25.08C96.9744 24.94 97.1144 24.8467 97.2544 24.8C97.161 24.52 97.1144 24.3333 97.1144 24.24C97.1144 23.96 97.2544 23.75 97.5344 23.61C97.3477 23.0033 97.2544 22.7233 97.2544 22.77V22.84C97.2544 22.7933 97.2544 22.77 97.2544 22.77C97.301 22.49 97.4644 22.21 97.7444 21.93C97.6977 21.8833 97.651 21.8367 97.6044 21.79C97.5577 21.7433 97.511 21.6967 97.4644 21.65V20.46C97.2777 20.2733 97.1844 20.1333 97.1844 20.04V18.85C97.1377 18.8033 96.951 18.78 96.6244 18.78L96.2044 18.85C96.0644 18.8967 95.9244 18.92 95.7844 18.92L95.5744 18.85C95.481 18.8033 95.3877 18.78 95.2944 18.78C95.2477 18.78 95.131 18.8267 94.9444 18.92L95.0844 19.2C94.9444 19.62 94.781 19.83 94.5944 19.83L94.5244 19.76H94.3844C94.4777 19.76 94.221 19.9233 93.6144 20.25C93.6144 20.4367 93.6144 20.6233 93.6144 20.81C93.6144 20.95 93.591 21.1133 93.5444 21.3C93.4977 21.86 93.4044 22.14 93.2644 22.14H93.1944L93.1244 22.21C93.1244 22.5367 93.2644 22.7 93.5444 22.7C93.6377 22.7 93.731 22.6533 93.8244 22.56L93.5444 23.47C93.591 23.5633 93.6377 23.68 93.6844 23.82C93.731 23.9133 93.7777 24.0067 93.8244 24.1L93.4744 24.8C93.4277 24.7533 93.311 24.7533 93.1244 24.8C93.451 24.94 93.6144 25.1733 93.6144 25.5C93.6144 25.64 93.4977 25.8267 93.2644 26.06C93.451 26.48 93.591 26.6433 93.6844 26.55C93.6377 26.7367 93.5677 27.11 93.4744 27.67V28.51C93.4744 29.0233 93.451 29.35 93.4044 29.49L93.1944 29.98C93.1944 29.98 93.2644 30.0967 93.4044 30.33L93.5444 30.75C93.591 31.0767 93.6144 31.45 93.6144 31.87C93.6144 32.29 93.6144 32.8033 93.6144 33.41L93.4044 34.39C93.3577 34.4833 93.3344 34.67 93.3344 34.95C93.3344 35.09 93.3344 35.2533 93.3344 35.44C93.381 35.58 93.4277 35.7667 93.4744 36C93.4744 36.0933 93.451 36.1867 93.4044 36.28C93.4044 36.3733 93.381 36.4667 93.3344 36.56C93.1477 36.9333 93.0544 37.19 93.0544 37.33L93.2644 38.31L92.8444 39.22C92.6577 39.5467 92.5644 39.8033 92.5644 39.99C92.5644 40.0367 92.5877 40.06 92.6344 40.06C92.6344 40.06 92.7744 40.0133 93.0544 39.92L93.2644 40.34C93.311 40.8067 93.3344 41.1333 93.3344 41.32C93.381 41.5067 93.4044 41.5767 93.4044 41.53L93.2644 42.09V43.07C92.331 43.2567 91.841 43.35 91.7944 43.35H91.8644C91.8644 43.35 91.841 43.35 91.7944 43.35L91.5844 43.28C91.3977 43.1867 91.281 43.14 91.2344 43.14L90.6744 43.35C90.6744 43.35 90.5344 43.3033 90.2544 43.21L89.8344 43C89.741 43 89.6477 43.0233 89.5544 43.07C89.4144 43.07 89.111 42.8833 88.6444 42.51C88.5044 43.0233 88.2244 43.28 87.8044 43.28C87.4777 43.28 87.1744 43.21 86.8944 43.07C86.6144 42.8367 86.4744 42.4167 86.4744 41.81C86.4744 41.1567 86.7544 40.6667 87.3144 40.34L86.8244 39.99L86.8944 39.57C86.7544 39.15 86.6844 38.8933 86.6844 38.8C86.731 38.7067 86.7777 38.59 86.8244 38.45C86.9177 38.2633 86.9877 38.0533 87.0344 37.82L86.8944 36.7C86.8944 36.3733 87.011 36.0933 87.2444 35.86C87.2444 35.72 87.1744 35.58 87.0344 35.44C86.941 35.2533 86.8944 35.1133 86.8944 35.02L87.1044 34.46L87.2444 33.9L86.9644 33.06L87.1044 32.08L87.2444 31.24C87.2444 31.24 87.1977 31.1933 87.1044 31.1C86.9644 30.8667 86.8944 30.5867 86.8944 30.26C86.8944 29.8867 86.9644 29.4667 87.1044 29C87.2444 28.86 87.3377 28.6967 87.3844 28.51L87.2444 27.81C87.1044 27.4367 87.0344 27.2033 87.0344 27.11L87.3144 25.71C87.781 25.6633 88.0144 25.57 88.0144 25.43C88.0144 25.3367 87.921 25.1967 87.7344 25.01C87.5944 24.87 87.4777 24.7067 87.3844 24.52C87.431 24.38 87.4544 24.1 87.4544 23.68C87.3144 23.3533 87.221 23.1667 87.1744 23.12C87.221 23.0733 87.2677 23.0033 87.3144 22.91C87.361 22.8167 87.4077 22.7 87.4544 22.56C87.4544 22.56 87.361 22.3967 87.1744 22.07L87.2444 19.06C87.291 18.8733 87.291 18.7567 87.2444 18.71L87.1044 18.78C86.9644 18.5933 86.801 18.43 86.6144 18.29L86.0544 18.36C85.8677 18.4067 85.7277 18.4533 85.6344 18.5C85.541 18.5 85.4477 18.5 85.3544 18.5C84.8877 18.8733 84.701 19.06 84.7944 19.06L84.3744 18.99C84.3277 19.4567 84.1877 19.8767 83.9544 20.25C83.7677 20.3433 83.581 20.4833 83.3944 20.67L83.2544 21.16L83.5344 22.28C83.5344 22.28 83.4877 22.3733 83.3944 22.56C83.2544 22.7467 83.1844 22.8867 83.1844 22.98L83.4644 24.38C83.4644 24.4267 83.3477 24.7533 83.1144 25.36C82.881 26.06 82.7644 26.41 82.7644 26.41V26.62C82.8577 26.5733 82.9277 26.5267 82.9744 26.48C83.0677 26.4333 83.161 26.3867 83.2544 26.34L83.3944 27.95L83.1844 29.14L82.9044 30.33C82.9044 30.6567 82.9977 30.9833 83.1844 31.31C83.091 31.5433 82.951 31.66 82.7644 31.66C82.9044 32.4067 82.9744 32.9433 82.9744 33.27C82.9277 33.3633 82.881 33.48 82.8344 33.62C82.7877 33.76 82.741 33.9233 82.6944 34.11L82.7644 34.46C82.8577 34.6467 82.9277 34.7633 82.9744 34.81C83.021 34.9967 83.0444 35.2067 83.0444 35.44C83.0444 35.6267 83.0444 35.8833 83.0444 36.21C82.951 36.1167 82.8577 36.42 82.7644 37.12L82.9044 37.4C83.0444 37.68 82.951 37.89 82.6244 38.03C82.6244 38.0767 82.6944 38.17 82.8344 38.31C82.9277 38.4967 82.9744 38.6133 82.9744 38.66C82.9744 38.8 82.881 38.8933 82.6944 38.94L82.2044 39.15V39.43C82.4377 39.5233 82.601 39.64 82.6944 39.78C82.6477 39.9667 82.6244 40.2 82.6244 40.48C82.6244 40.7133 82.6244 41.0167 82.6244 41.39C82.7644 42.1367 82.8344 42.4633 82.8344 42.37C82.8344 42.8367 82.5777 43.07 82.0644 43.07C82.0177 43.07 81.901 43.0467 81.7144 43C81.5744 42.9067 81.4577 42.8367 81.3644 42.79C81.3177 42.79 81.271 42.8133 81.2244 42.86C81.131 42.9533 81.0377 43 80.9444 43L80.8044 42.93C80.7577 42.8833 80.711 42.86 80.6644 42.86L79.9644 43.21C79.9177 43.1633 79.7544 43.0933 79.4744 43C79.241 42.9533 79.031 42.93 78.8444 42.93C78.7044 42.8833 78.5877 42.86 78.4944 42.86L77.7944 42.93C77.561 42.9767 77.3744 43 77.2344 43C77.0944 43 77.001 43 76.9544 43C76.9077 43 76.8144 42.93 76.6744 42.79C76.4877 42.65 76.371 42.58 76.3244 42.58L75.9044 42.93H75.5544V42.72C75.5544 42.6267 75.5544 42.4867 75.5544 42.3C75.5544 42.1133 75.5777 41.88 75.6244 41.6C75.811 41.6 75.9977 41.53 76.1844 41.39C76.1844 41.39 75.9977 41.1567 75.6244 40.69V39.71C75.8577 39.4767 75.9744 39.29 75.9744 39.15C75.9744 39.01 75.9044 38.8 75.7644 38.52C75.6244 38.24 75.5544 38.03 75.5544 37.89C75.5544 37.8433 75.671 37.6567 75.9044 37.33L75.8344 36.63C75.881 36.5367 75.9044 36.4433 75.9044 36.35C75.9044 36.2567 75.9277 36.14 75.9744 36L75.8344 35.65C75.8344 35.65 75.881 35.5567 75.9744 35.37L76.0444 35.16C76.0444 35.1133 76.0444 35.0433 76.0444 34.95C76.0444 34.8567 76.021 34.74 75.9744 34.6C75.9277 34.4133 75.881 34.2733 75.8344 34.18C75.8344 34.04 75.8344 33.9467 75.8344 33.9V32.22L75.9744 32.01C75.881 32.01 75.8344 31.9633 75.8344 31.87L75.9744 31.8C76.021 31.7067 76.0444 31.6133 76.0444 31.52C76.091 31.38 76.091 31.2167 76.0444 31.03L75.9744 30.68C75.9744 30.6333 75.9744 30.54 75.9744 30.4C75.9744 30.26 75.951 30.0733 75.9044 29.84C75.9044 29.9333 76.0444 29.7 76.3244 29.14C76.371 29 76.3944 28.6967 76.3944 28.23C76.3944 28.2767 76.2544 28.1367 75.9744 27.81V27.6C76.021 27.46 76.0677 27.2967 76.1144 27.11C76.2077 26.9233 76.2777 26.7367 76.3244 26.55L76.1844 26.13C76.091 25.85 76.0444 25.71 76.0444 25.71C76.0444 25.43 76.1144 25.2667 76.2544 25.22C76.3944 25.1267 76.4644 25.0333 76.4644 24.94C76.4644 25.0333 76.371 24.8933 76.1844 24.52V24.1C76.1844 23.8667 76.2777 23.6567 76.4644 23.47C76.6044 23.2367 76.6744 23.12 76.6744 23.12C76.4877 22.8867 76.2777 22.6067 76.0444 22.28L76.3944 20.95C76.4877 20.8567 76.5577 20.7633 76.6044 20.67L76.2544 20.25V19.06C76.721 18.92 76.9544 18.8733 76.9544 18.92C76.9544 18.78 76.861 18.6167 76.6744 18.43C76.721 18.29 76.7444 18.0333 76.7444 17.66C76.4644 17.1 76.3244 16.6567 76.3244 16.33L76.6744 13.46C76.6277 13.2267 76.581 12.97 76.5344 12.69C76.4877 12.3633 76.4177 12.0367 76.3244 11.71C76.3244 11.43 76.4644 11.29 76.7444 11.29C76.8377 11.29 77.001 11.3833 77.2344 11.57C77.421 11.7567 77.561 11.85 77.6544 11.85L77.7944 11.78H77.9344C77.981 11.78 78.0277 11.8033 78.0744 11.85C78.121 11.85 78.191 11.8733 78.2844 11.92C78.4244 12.06 78.541 12.13 78.6344 12.13H79.1244C79.1244 12.27 79.101 12.41 79.0544 12.55L79.1944 12.69C79.3344 12.69 79.451 12.55 79.5444 12.27C79.6844 11.99 79.731 11.7333 79.6844 11.5H80.1044C80.3377 11.7333 80.4777 11.85 80.5244 11.85C80.6644 11.85 80.7577 11.8267 80.8044 11.78L81.0144 11.71L81.7144 11.92L82.4144 12.2C82.5077 12.2 82.6477 12.1067 82.8344 11.92C82.9277 12.0133 83.0444 12.13 83.1844 12.27C83.3244 12.3633 83.4877 12.48 83.6744 12.62C83.6277 12.6667 83.5577 12.7367 83.4644 12.83C83.4177 12.9233 83.3244 13.04 83.1844 13.18C83.4644 13.5533 83.721 13.74 83.9544 13.74L84.0944 13.67C84.2344 13.53 84.3277 13.4133 84.3744 13.32L85.0744 13.11C85.4477 13.0167 85.6344 12.83 85.6344 12.55C85.7744 12.41 85.9144 12.3167 86.0544 12.27C86.2877 12.0833 86.591 11.99 86.9644 11.99C86.9644 11.99 87.0577 12.0367 87.2444 12.13C87.291 12.0833 87.5244 11.99 87.9444 11.85L88.5044 11.78C88.691 11.5933 88.831 11.5 88.9244 11.5C89.0177 11.5 89.1577 11.57 89.3444 11.71C89.4844 11.85 89.601 11.92 89.6944 11.92L90.2544 11.71C90.3477 11.71 90.8377 11.99 91.7244 12.55H92.0744L92.9144 13.39V13.53C92.9144 13.7633 93.031 13.9967 93.2644 14.23C93.0777 14.23 92.9844 14.3 92.9844 14.44C92.9844 14.9533 93.4277 15.21 94.3144 15.21C94.361 15.21 94.5477 15 94.8744 14.58C95.2477 14.16 95.481 13.95 95.5744 13.95V14.02C95.761 13.88 95.831 13.7167 95.7844 13.53L95.6444 13.11C95.6444 12.83 95.761 12.69 95.9944 12.69L96.4844 13.11C96.5777 13.0633 96.6477 13.04 96.6944 13.04C96.7877 13.04 96.8577 13.0167 96.9044 12.97C97.091 12.9233 97.1844 12.8067 97.1844 12.62V12.41C97.2777 12.4567 97.4177 12.48 97.6044 12.48C97.931 12.48 98.0944 12.3167 98.0944 11.99V11.85C98.1877 11.9433 98.3744 12.0833 98.6544 12.27H98.8644C99.471 12.27 99.7744 12.0833 99.7744 11.71L100.474 12.2C100.568 12.48 100.708 12.76 100.894 13.04C100.988 13.04 101.128 12.8067 101.314 12.34H101.664C101.758 12.5733 101.898 12.69 102.084 12.69L102.434 12.62C102.528 12.62 102.621 12.7367 102.714 12.97V13.25C102.761 13.2967 102.878 13.3667 103.064 13.46L103.834 14.79C103.788 14.8367 103.764 14.93 103.764 15.07C103.764 15.1633 103.741 15.28 103.694 15.42L104.044 15.84C104.091 15.98 104.114 16.2367 104.114 16.61C104.114 16.9833 104.114 17.4733 104.114 18.08V18.15L104.044 18.29C104.044 18.29 104.068 18.4067 104.114 18.64C104.161 18.6867 104.114 18.8733 103.974 19.2V19.34C103.788 19.3867 103.624 19.5267 103.484 19.76V20.04C103.484 20.1333 103.438 20.2733 103.344 20.46C103.251 20.6467 103.204 20.7633 103.204 20.81C103.204 20.9033 103.274 21.0667 103.414 21.3C103.741 22.14 103.881 22.6533 103.834 22.84C103.554 22.9333 103.391 23.2133 103.344 23.68L104.044 23.96V24.24C103.998 24.2867 103.951 24.3333 103.904 24.38C103.858 24.4267 103.788 24.4967 103.694 24.59C103.694 24.6833 103.764 24.8 103.904 24.94C103.951 25.0333 103.974 25.1033 103.974 25.15C104.021 25.1967 104.044 25.2433 104.044 25.29C104.044 25.3833 103.928 25.5467 103.694 25.78C103.788 26.2 103.858 26.55 103.904 26.83C103.998 27.11 104.021 27.32 103.974 27.46V30.54C103.974 30.6333 103.858 31.0767 103.624 31.87C103.671 32.0567 103.694 32.1733 103.694 32.22C103.741 32.2667 103.764 32.2667 103.764 32.22V34.53L103.694 34.74C103.601 34.9267 103.554 35.02 103.554 35.02C103.648 35.44 103.671 35.6967 103.624 35.79L103.274 36.28L103.204 37.61C103.064 37.47 102.924 37.4 102.784 37.4C102.504 37.4 102.364 37.5167 102.364 37.75C102.364 37.9833 102.504 38.2167 102.784 38.45C102.971 38.6367 103.158 38.73 103.344 38.73V39.29C103.484 39.6167 103.578 39.78 103.624 39.78L103.274 40.76C103.274 40.8067 103.274 40.9 103.274 41.04C103.321 41.1333 103.368 41.2733 103.414 41.46C103.461 41.46 103.438 41.6467 103.344 42.02C103.531 42.2067 103.624 42.3933 103.624 42.58C103.624 42.72 103.554 42.9067 103.414 43.14C103.274 43.3733 103.134 43.49 102.994 43.49L102.504 43.56H102.014L101.594 43.42C101.314 43.28 101.151 43.21 101.104 43.21C101.058 43.35 100.871 43.49 100.544 43.63ZM80.5944 13.11L80.8744 12.9L80.8044 12.76C80.711 12.8533 80.641 12.97 80.5944 13.11ZM86.8944 14.65L87.3844 14.51C87.2444 14.2767 87.011 14.0667 86.6844 13.88C86.6377 13.9267 86.5677 14.0667 86.4744 14.3V14.51C86.5677 14.65 86.7077 14.6967 86.8944 14.65ZM77.8644 15.28C78.0044 15.28 78.0977 15.2567 78.1444 15.21C78.2377 15.1167 78.2377 15 78.1444 14.86C78.051 14.86 77.9577 15 77.8644 15.28ZM98.0244 16.89C98.1177 16.89 98.351 16.7733 98.7244 16.54L98.8644 15.77C98.8644 15.5833 98.7477 15.3733 98.5144 15.14L98.2344 15.21C98.141 15.2567 98.071 15.3033 98.0244 15.35C97.9777 15.35 97.931 15.35 97.8844 15.35C97.3244 15.35 96.9977 15.35 96.9044 15.35C96.951 15.4433 97.1144 15.6533 97.3944 15.98C97.3477 16.1667 97.3477 16.3533 97.3944 16.54C97.581 16.7267 97.791 16.8433 98.0244 16.89ZM81.2244 19.69C81.271 19.5967 81.2244 19.5033 81.0844 19.41C81.0377 19.3633 80.9444 19.3633 80.8044 19.41C80.8044 19.5967 80.9444 19.69 81.2244 19.69ZM92.0744 19.97C92.0744 19.83 92.051 19.7367 92.0044 19.69C91.911 19.5967 91.7944 19.5967 91.6544 19.69C91.6544 19.7833 91.7944 19.8767 92.0744 19.97ZM87.1744 23.19C87.1744 23.0967 87.1744 23.0733 87.1744 23.12C87.1744 23.12 87.1744 23.1433 87.1744 23.19ZM101.384 28.23C101.384 28.1367 101.338 28.0433 101.244 27.95C101.198 27.8567 101.104 27.88 100.964 28.02C100.964 28.16 101.104 28.23 101.384 28.23ZM78.8444 34.39C79.031 34.39 79.2177 34.25 79.4044 33.97C79.5444 33.7367 79.6144 33.5267 79.6144 33.34C79.4744 33.1067 79.1944 32.8967 78.7744 32.71H78.7044C78.2377 32.71 77.8644 33.0367 77.5844 33.69C77.911 34.0633 78.331 34.2967 78.8444 34.39ZM80.2444 39.78C80.291 39.7333 80.2444 39.64 80.1044 39.5L79.8944 39.64C79.9877 39.64 80.0577 39.6633 80.1044 39.71L80.2444 39.78ZM103.624 39.71C103.624 39.8033 103.624 39.8267 103.624 39.78V39.71ZM81.0144 41.46V41.39C81.0144 41.25 80.921 41.1333 80.7344 41.04C80.5944 40.9467 80.4544 40.9467 80.3144 41.04V41.25C80.3144 41.5767 80.5477 41.6467 81.0144 41.46ZM107.542 52.73C107.448 52.73 107.215 52.66 106.842 52.52L106.142 52.31C106.142 52.31 106.118 52.31 106.072 52.31C106.025 52.3567 105.955 52.4033 105.862 52.45C105.675 52.5433 105.465 52.5667 105.232 52.52C105.092 52.52 104.718 52.3567 104.112 52.03C104.158 51.9367 104.205 51.7967 104.252 51.61C104.298 51.47 104.368 51.3067 104.462 51.12L104.672 50.84V49.3C104.765 49.0667 104.905 48.95 105.092 48.95L105.302 49.09H105.582C105.488 48.9967 105.442 48.81 105.442 48.53L104.882 48.25C104.742 48.2033 104.672 47.8067 104.672 47.06C104.672 45.94 104.905 45.4033 105.372 45.45L106.072 45.66H106.492L106.912 45.59C107.145 45.59 107.332 45.66 107.472 45.8C107.565 45.8933 107.658 45.94 107.752 45.94C108.078 45.94 108.382 45.8 108.662 45.52C108.942 45.2867 109.175 45.0767 109.362 44.89C109.548 44.75 109.665 44.6567 109.712 44.61C109.805 44.5167 109.922 44.4467 110.062 44.4C110.248 44.4 110.435 44.3767 110.622 44.33V43.77C110.575 43.6767 110.552 43.56 110.552 43.42C110.552 43.3267 110.528 43.1867 110.482 43C110.482 42.86 110.552 42.6967 110.692 42.51C110.785 42.5567 110.878 42.6267 110.972 42.72C111.065 42.8133 111.182 42.9067 111.322 43C111.368 43 111.485 42.9067 111.672 42.72H111.602C111.602 42.6733 111.602 42.6267 111.602 42.58C111.648 42.5333 111.672 42.4867 111.672 42.44C111.672 42.3 111.578 42.09 111.392 41.81C111.345 41.81 111.275 41.9267 111.182 42.16H110.832C110.925 41.6467 111.018 41.2967 111.112 41.11V40.97L110.622 40.76C110.528 40.5267 110.458 40.2233 110.412 39.85L110.342 39.08C110.342 38.8467 110.552 38.5667 110.972 38.24C110.925 38.0533 110.832 37.96 110.692 37.96C110.552 37.96 110.435 38.0067 110.342 38.1C110.202 37.96 110.132 37.61 110.132 37.05C110.132 36.8167 110.108 36.6767 110.062 36.63C109.922 36.3033 109.828 36.14 109.782 36.14V36.21C109.782 36.21 109.782 36.1867 109.782 36.14L109.992 35.58C110.132 35.3467 110.202 35.1833 110.202 35.09C110.202 34.95 109.992 34.88 109.572 34.88L109.642 34.53C109.455 34.0633 109.315 33.62 109.222 33.2C109.128 32.78 109.105 32.3833 109.152 32.01L109.502 31.45C109.455 31.4033 109.478 31.24 109.572 30.96L109.642 30.54C109.595 30.4 109.408 30.33 109.082 30.33L108.662 28.44C108.895 28.3467 109.105 28.2067 109.292 28.02C109.292 27.9267 109.198 27.81 109.012 27.67L108.522 27.39C108.522 27.3433 108.522 27.2733 108.522 27.18C108.522 27.0867 108.545 26.9467 108.592 26.76C108.638 26.6667 108.662 26.5267 108.662 26.34C108.662 26.2 108.638 26.0133 108.592 25.78C108.545 25.5467 108.452 25.2667 108.312 24.94L108.032 24.17L108.242 23.4H108.312C108.592 23.4 108.848 23.4933 109.082 23.68C109.175 23.68 109.245 23.5867 109.292 23.4C109.292 23.1667 109.175 23.05 108.942 23.05L108.732 23.12C107.985 23.0733 107.612 22.42 107.612 21.16C107.612 20.8333 107.658 20.6233 107.752 20.53C107.985 20.2967 108.148 20.18 108.242 20.18C108.195 20.1333 108.102 20.0633 107.962 19.97C107.868 19.83 107.728 19.6667 107.542 19.48C107.402 19.34 107.332 19.1533 107.332 18.92C107.285 18.64 107.285 18.1967 107.332 17.59C107.238 17.4033 107.168 17.2867 107.122 17.24C107.215 17.0533 107.262 16.7733 107.262 16.4C107.355 16.3067 107.378 16.19 107.332 16.05C106.678 15.1167 106.398 14.4633 106.492 14.09L106.562 13.74C106.655 13.5533 106.702 13.4133 106.702 13.32C106.282 12.8067 106.072 12.3867 106.072 12.06C106.072 11.9667 106.142 11.78 106.282 11.5L106.842 11.57C106.935 11.57 107.005 11.5467 107.052 11.5C107.098 11.4533 107.168 11.43 107.262 11.43C107.262 11.43 107.355 11.4767 107.542 11.57C107.635 11.71 107.705 11.78 107.752 11.78L108.592 11.57C108.685 11.57 108.848 11.6867 109.082 11.92L109.362 11.71C109.548 11.6167 109.642 11.57 109.642 11.57C109.688 11.57 109.782 11.5933 109.922 11.64C110.062 11.64 110.155 11.6633 110.202 11.71L110.552 11.57C110.692 11.5233 110.808 11.5 110.902 11.5L111.812 11.85C112.092 11.6633 112.372 11.5467 112.652 11.5L113.282 11.57V11.64C113.188 11.7333 113.142 11.99 113.142 12.41L113.212 13.25C113.305 13.2967 113.212 13.46 112.932 13.74C112.932 13.74 112.978 13.88 113.072 14.16L113.422 14.65V16.05C113.422 16.05 113.468 16.0967 113.562 16.19C113.608 16.2367 113.632 16.33 113.632 16.47L113.422 17.17C113.422 17.2167 113.422 17.2633 113.422 17.31C113.468 17.3567 113.515 17.4267 113.562 17.52C113.422 17.66 113.305 17.73 113.212 17.73L113.282 18.01C113.328 18.1033 113.352 18.22 113.352 18.36V18.43C113.352 18.4767 113.328 18.5467 113.282 18.64C113.282 18.7333 113.258 18.85 113.212 18.99L113.772 19.2C113.772 19.6667 113.935 20.1333 114.262 20.6V20.74C114.262 21.2533 114.005 21.8133 113.492 22.42C113.538 22.6067 113.702 22.7 113.982 22.7C113.982 23.12 113.958 23.4 113.912 23.54L113.982 23.68C114.168 23.68 114.308 23.7967 114.402 24.03C114.495 24.17 114.495 24.38 114.402 24.66C114.402 24.8933 114.378 25.08 114.332 25.22L114.682 26.55C114.635 26.5967 114.612 26.6667 114.612 26.76L113.912 26.62C113.912 26.6667 113.865 26.7367 113.772 26.83C113.818 27.0167 113.912 27.11 114.052 27.11C114.192 27.0633 114.425 27.04 114.752 27.04C114.658 27.04 114.938 26.8767 115.592 26.55V25.5C115.825 25.64 115.988 25.71 116.082 25.71L116.432 25.57L116.152 25.15L116.362 24.59C116.362 24.4967 116.338 24.4033 116.292 24.31C116.292 24.2167 116.268 24.0767 116.222 23.89C116.128 23.61 116.105 23.4467 116.152 23.4L116.572 22.56C116.618 22.3733 116.642 22.1633 116.642 21.93C116.642 21.6967 116.665 21.4167 116.712 21.09L116.852 20.95C116.852 20.8567 116.852 20.7167 116.852 20.53C116.852 20.2967 116.875 20.04 116.922 19.76C116.968 19.7133 117.062 19.69 117.202 19.69C117.202 19.83 117.295 19.97 117.482 20.11C117.715 20.2033 117.972 19.9 118.252 19.2C118.392 18.92 118.485 18.6867 118.532 18.5C118.625 18.2667 118.695 18.08 118.742 17.94L118.112 17.52C118.205 17.4267 118.275 17.38 118.322 17.38L118.602 17.45C118.648 17.45 118.672 17.4733 118.672 17.52C118.718 17.5667 118.765 17.59 118.812 17.59H118.882C119.068 17.59 119.208 17.2867 119.302 16.68L118.882 16.33C118.695 16.3767 118.602 16.4933 118.602 16.68L117.762 16.4C117.902 15.9333 117.948 15.63 117.902 15.49L117.832 15.21C117.785 15.1167 117.762 15 117.762 14.86C117.762 14.6733 117.855 14.51 118.042 14.37C118.228 14.23 118.322 14.09 118.322 13.95L118.182 13.32C118.042 12.9933 117.995 12.8067 118.042 12.76C118.182 12.62 118.392 12.34 118.672 11.92H119.022C119.068 12.0133 119.115 12.13 119.162 12.27C119.208 12.41 119.278 12.5733 119.372 12.76L119.652 12.41C119.932 12.27 120.305 12.2 120.772 12.2C120.865 12.2 121.005 12.2933 121.192 12.48C121.378 12.6667 121.495 12.76 121.542 12.76C121.682 12.76 121.822 12.5733 121.962 12.2L122.312 12.27L123.222 12.62C123.362 12.6667 123.502 12.5733 123.642 12.34H123.922C124.108 12.5267 124.272 12.62 124.412 12.62L125.392 12.27C125.532 12.4567 125.602 12.6433 125.602 12.83C125.555 13.0167 125.485 13.2967 125.392 13.67C125.298 13.9967 125.135 14.4167 124.902 14.93C124.715 15.3967 124.388 15.7233 123.922 15.91C124.202 16.19 124.342 16.54 124.342 16.96L123.712 18.43C123.712 18.4767 123.712 18.57 123.712 18.71C123.712 18.8033 123.688 18.92 123.642 19.06C123.548 19.1533 123.432 19.34 123.292 19.62C123.338 19.8067 123.362 20.0633 123.362 20.39C123.362 20.67 123.362 20.9967 123.362 21.37L122.732 21.23C122.592 21.23 122.498 21.3233 122.452 21.51L122.592 21.86C122.638 21.9533 122.662 22.0233 122.662 22.07C122.708 22.1167 122.732 22.1633 122.732 22.21C122.778 22.3967 122.802 22.5833 122.802 22.77C122.802 22.9567 122.802 23.1667 122.802 23.4L122.452 24.17L122.312 25.22C122.172 25.64 121.915 25.92 121.542 26.06C121.728 26.2467 121.822 26.4333 121.822 26.62C121.822 26.7133 121.798 26.83 121.752 26.97C121.752 27.0633 121.728 27.18 121.682 27.32C121.542 27.46 121.448 27.6 121.402 27.74C121.355 27.9267 121.308 28.16 121.262 28.44C121.215 28.72 121.145 29.0933 121.052 29.56L120.702 30.19C120.655 30.3767 120.608 30.61 120.562 30.89C120.515 31.17 120.445 31.52 120.352 31.94C120.258 31.9867 120.095 32.01 119.862 32.01C119.815 32.01 119.792 32.1033 119.792 32.29C119.792 32.4767 119.885 32.6867 120.072 32.92L119.862 33.2C119.862 33.2933 119.862 33.41 119.862 33.55C119.862 33.69 119.838 33.8767 119.792 34.11C119.698 34.1567 119.558 34.32 119.372 34.6L119.512 35.51L119.442 35.86L119.092 35.93C118.952 35.93 118.882 36.0933 118.882 36.42V37.12L118.392 38.52V39.15L118.112 39.92L117.972 40.83L117.552 41.25L117.272 41.81C117.225 41.7633 117.108 41.74 116.922 41.74C116.875 41.7867 116.828 41.8333 116.782 41.88C116.735 41.88 116.688 41.9267 116.642 42.02L117.062 42.23C117.342 42.37 117.482 42.4867 117.482 42.58L117.272 43.07C117.225 43.2567 117.155 43.5833 117.062 44.05L117.132 44.4C117.038 44.7267 116.898 45.03 116.712 45.31C116.525 45.3567 116.292 45.52 116.012 45.8C116.152 46.1267 116.222 46.4533 116.222 46.78C116.222 47.1533 116.082 47.48 115.802 47.76L114.822 48.74L114.612 50.49C114.378 50.6767 114.122 50.8633 113.842 51.05C113.562 51.2833 113.235 51.4933 112.862 51.68L111.672 51.96C111.625 52.0067 111.578 52.0767 111.532 52.17C111.485 52.2633 111.415 52.3567 111.322 52.45H110.972C110.832 52.45 110.692 52.4267 110.552 52.38L108.942 52.45C108.848 52.45 108.732 52.45 108.592 52.45C108.452 52.4967 108.288 52.5433 108.102 52.59L107.542 52.73ZM123.082 14.16C123.082 14.1133 123.012 14.02 122.872 13.88L122.732 13.95C122.778 13.9967 122.895 14.0667 123.082 14.16ZM110.412 15.77L111.322 15L111.112 14.72L110.762 14.79C110.715 14.79 110.645 14.72 110.552 14.58C110.412 14.44 110.318 14.37 110.272 14.37C110.225 14.37 110.108 14.4167 109.922 14.51L109.852 14.65C109.898 14.79 109.968 14.9533 110.062 15.14C110.155 15.3267 110.272 15.5367 110.412 15.77ZM123.082 15.21C123.128 15.1167 123.105 15.0233 123.012 14.93C122.965 14.8833 122.848 14.9067 122.662 15C122.755 15.14 122.895 15.21 123.082 15.21ZM112.932 21.23C112.932 21.23 113.025 21.1833 113.212 21.09L113.072 20.88C113.072 20.9267 113.048 20.95 113.002 20.95C113.002 20.95 113.002 20.9733 113.002 21.02L112.932 21.23ZM110.132 23.33C110.225 23.3767 110.318 23.3533 110.412 23.26C110.458 23.2133 110.435 23.0967 110.342 22.91C110.202 22.9567 110.132 23.0967 110.132 23.33ZM113.282 27.88C113.328 27.74 113.305 27.6233 113.212 27.53C113.165 27.4833 113.048 27.5067 112.862 27.6C112.862 27.6933 113.002 27.7867 113.282 27.88ZM117.272 33.2L117.342 32.78C117.295 32.7333 117.202 32.71 117.062 32.71L116.992 33.13C117.038 33.1767 117.132 33.2 117.272 33.2ZM111.392 37.33C111.532 37.33 111.672 37.26 111.812 37.12C111.765 37.0733 111.742 37.0033 111.742 36.91L111.112 37.12C111.205 37.26 111.298 37.33 111.392 37.33ZM112.162 40.97L112.372 40.48C112.278 40.34 112.138 40.2233 111.952 40.13C111.858 40.3167 111.812 40.4567 111.812 40.55C111.812 40.5967 111.928 40.7367 112.162 40.97ZM111.742 50C111.835 49.9067 111.952 49.79 112.092 49.65C112.232 49.5567 112.395 49.44 112.582 49.3C112.582 49.2067 112.535 49.1133 112.442 49.02H112.092C112.092 49.02 111.998 48.9733 111.812 48.88C111.672 48.74 111.578 48.67 111.532 48.67C111.438 48.67 111.345 48.7167 111.252 48.81C111.205 48.81 111.182 48.8333 111.182 48.88C111.275 49.2067 111.462 49.58 111.742 50Z" fill="#F3BE12"/>
</svg>
